<svg width="350" height="350" viewBox="0 0 350 350" fill="none" xmlns="http://www.w3.org/2000/svg">
<path d="M21.5297 173.5C21.5297 239.205 63.6609 294.878 121.842 315.442V31.5579C63.6609 52.1219 21.5297 107.795 21.5297 173.5Z" fill="#428BC1"/>
<path d="M322.467 173.5C322.467 107.795 280.837 52.1219 222.155 31.5579V315.442C280.837 294.878 322.467 239.205 322.467 173.5Z" fill="#ED4C5C"/>
<path d="M121.842 315.442C137.391 320.959 154.444 323.969 171.998 323.969C189.553 323.969 206.606 320.959 222.155 315.442V31.5578C206.606 26.0406 190.055 23.0312 171.998 23.0312C153.942 23.0312 137.391 26.0406 121.842 31.5578V315.442Z" fill="white"/>
</svg>
