<svg width="350" height="350" viewBox="0 0 350 350" fill="none" xmlns="http://www.w3.org/2000/svg">
<mask id="mask0_80_110" style="mask-type:luminance" maskUnits="userSpaceOnUse" x="25" y="25" width="300" height="300">
<path d="M175 325C257.843 325 325 257.843 325 175C325 92.1573 257.843 25 175 25C92.1573 25 25 92.1573 25 175C25 257.843 92.1573 325 175 325Z" fill="white"/>
</mask>
<g mask="url(#mask0_80_110)">
<path d="M25 25L29.6875 37.8906L25 51.3672V64.8438L43.75 96.4844L25 128.125V146.875L43.75 175L25 203.125V221.875L43.75 253.516L25 285.156V325L37.8906 320.312L51.3672 325H64.8438L96.4844 306.25L128.125 325H146.875L175 306.25L203.125 325H221.875L253.516 306.25L285.156 325H325L320.312 312.109L325 298.633V285.156L306.25 253.516L325 221.875V203.125L306.25 175L325 146.875V128.125L306.25 96.4844L325 64.8438V25L312.109 29.6875L298.633 25H285.156L253.516 43.75L221.875 25H203.125L175 43.75L146.875 25H128.125L96.4844 43.75L64.8438 25H25Z" fill="#EEEEEE"/>
<path d="M221.875 25V88.2812L285.156 25H221.875ZM325 64.8438L261.719 128.125H325V64.8438ZM25 128.125H88.2812L25 64.8438V128.125ZM64.8438 25L128.125 88.2812V25H64.8438ZM128.125 325V261.719L64.8438 325H128.125ZM25 285.156L88.2812 221.875H25V285.156ZM325 221.875H261.719L325 285.156V221.875ZM285.156 325L221.875 261.719V325H285.156Z" fill="#0052B4"/>
<path d="M25 25V51.3672L101.758 128.125H128.125L25 25ZM146.875 25V146.875H25V203.125H146.875V325H203.125V203.125H325V146.875H203.125V25H146.875ZM298.633 25L221.875 101.758V128.125L325 25H298.633ZM128.125 221.875L25 325H51.3672L128.125 248.242V221.875ZM221.875 221.875L325 325V298.633L248.242 221.875H221.875Z" fill="#D80027"/>
</g>
</svg>
