<svg width="350" height="350" viewBox="0 0 350 350" fill="none" xmlns="http://www.w3.org/2000/svg">
<mask id="mask0_80_72" style="mask-type:luminance" maskUnits="userSpaceOnUse" x="25" y="25" width="300" height="300">
<path d="M175 325C257.843 325 325 257.843 325 175C325 92.1573 257.843 25 175 25C92.1573 25 25 92.1573 25 175C25 257.843 92.1573 325 175 325Z" fill="white"/>
</mask>
<g mask="url(#mask0_80_72)">
<path d="M25 325H122.852L145.059 172.48L122.852 25H25V325Z" fill="#6DA544"/>
<path d="M325 25H122.852V325H325V25Z" fill="#D80027"/>
<path d="M122.852 227.148C151.652 227.148 175 203.801 175 175C175 146.199 151.652 122.852 122.852 122.852C94.0508 122.852 70.7031 146.199 70.7031 175C70.7031 203.801 94.0508 227.148 122.852 227.148Z" fill="#FFDA44"/>
<path d="M93.4961 148.926V181.445C93.4961 189.223 96.5858 196.682 102.086 202.182C107.585 207.682 115.044 210.771 122.822 210.771C130.6 210.771 138.059 207.682 143.559 202.182C149.059 196.682 152.148 189.223 152.148 181.445V148.867H93.5547L93.4961 148.926Z" fill="#D80027"/>
<path d="M122.852 191.289C117.461 191.289 113.066 186.895 113.066 181.504V168.555H132.637V181.445C132.637 186.836 128.242 191.23 122.852 191.23V191.289Z" fill="#EEEEEE"/>
</g>
</svg>
