<svg width="598" height="571" viewBox="0 0 598 571" fill="none" xmlns="http://www.w3.org/2000/svg">
<path d="M166.249 179.413H206.636C227.934 179.413 244.41 183.934 256.064 192.976C267.919 201.817 273.846 214.274 273.846 230.348C273.846 242.806 270.129 253.154 262.695 261.392C255.462 269.63 244.913 275.155 231.049 277.968V279.777C244.31 282.389 255.16 288.618 263.599 298.463C272.038 308.309 278.367 320.465 282.587 334.932C286.404 348.193 290.122 358.541 293.738 365.975C297.556 373.209 301.675 378.433 306.095 381.647C310.717 384.862 316.142 387.173 322.371 388.58V390.388H310.014C301.173 390.388 293.839 388.78 288.012 385.566C282.386 382.351 277.564 376.926 273.545 369.29C269.526 361.655 265.709 351.106 262.092 337.644C256.265 316.949 248.529 302.281 238.885 293.641C229.24 285.001 217.486 280.681 203.622 280.681H201.814V275.256H203.622C235.971 275.256 252.146 260.387 252.146 230.65C252.146 201.314 236.976 186.647 206.636 186.647H186.744V390.388H166.249V179.413ZM364.168 390.388V185.441C361.154 185.441 354.925 186.044 345.481 187.249L286.408 194.784V179.413H462.422V194.784L403.349 187.249C393.905 186.044 387.676 185.441 384.662 185.441V390.388H364.168Z" fill="#E07A5F"/>
<path d="M60.3903 311.725L61.1648 317.236L38.3414 320.443L37.567 314.933L60.3903 311.725ZM56.344 315.818L60.8761 315.182L61.5038 319.648C61.7757 321.583 61.699 323.245 61.2737 324.635C60.8731 326.043 60.1659 327.162 59.1521 327.992C58.1382 328.822 56.8488 329.346 55.2837 329.566C53.7622 329.78 52.3889 329.63 51.1639 329.115C49.9606 328.597 48.9615 327.717 48.1665 326.477C47.3964 325.255 46.8753 323.677 46.6034 321.743L45.9757 317.276L50.5077 316.639L51.1355 321.106C51.2913 322.214 51.6635 323.048 52.252 323.609C52.8405 324.169 53.6021 324.383 54.5368 324.252C55.4932 324.117 56.1771 323.7 56.5884 322.999C56.9998 322.298 57.1276 321.394 56.9718 320.285L56.344 315.818Z" fill="#E07A5F"/>
<path d="M54.4382 344.298C53.1226 344.646 52.023 345.21 51.1394 345.989C50.2826 346.783 49.6914 347.723 49.3657 348.809C49.0457 349.915 49.0543 351.105 49.3914 352.378C49.723 353.63 50.2988 354.647 51.119 355.429C51.9448 356.232 52.9237 356.756 54.0559 357.001C55.2149 357.262 56.4521 357.218 57.7677 356.87C59.0832 356.521 60.1722 355.961 61.0346 355.187C61.9183 354.408 62.5229 353.476 62.8485 352.391C63.1742 351.305 63.1656 350.116 62.8228 348.821C62.4857 347.548 61.9042 346.51 61.0784 345.707C60.2583 344.925 59.2687 344.404 58.1097 344.143C56.9776 343.898 55.7537 343.949 54.4382 344.298ZM52.9294 338.601C54.6481 338.145 56.2969 338.027 57.8759 338.244C59.4605 338.483 60.916 339.006 62.2423 339.813C63.5686 340.62 64.7015 341.682 65.6409 343C66.6015 344.312 67.3066 345.817 67.7562 347.515C68.2114 349.233 68.3436 350.89 68.1528 352.485C67.9888 354.095 67.5303 355.579 66.7772 356.936C66.024 358.294 65.0153 359.458 63.751 360.428C62.4867 361.399 60.9952 362.112 59.2765 362.567C57.5578 363.022 55.8983 363.144 54.2981 362.932C52.7035 362.741 51.2325 362.245 49.8849 361.444C48.543 360.664 47.3811 359.621 46.3993 358.314C45.4386 357.001 44.7279 355.475 44.2671 353.735C43.8007 351.974 43.6601 350.286 43.8453 348.67C44.0516 347.049 44.542 345.556 45.3163 344.193C46.0963 342.851 47.129 341.692 48.4146 340.716C49.7057 339.761 51.2106 339.056 52.9294 338.601Z" fill="#E07A5F"/>
<path d="M63.6919 377.29L65.8193 382.644L58.7816 393.199L56.3747 387.141L63.6919 377.29ZM73.284 367.279L75.3384 372.45L53.9191 380.96L51.8647 375.788L73.284 367.279ZM70.1969 372.261L74.5726 370.523L76.3838 375.082C77.1132 376.918 77.4252 378.565 77.3199 380.024C77.2146 381.483 76.7571 382.74 75.9476 383.793C75.1584 384.839 74.0703 385.637 72.6831 386.188C71.3164 386.731 69.977 386.897 68.665 386.686C67.3734 386.467 66.1887 385.863 65.1109 384.874C64.0331 383.886 63.1295 382.473 62.4001 380.637L60.5888 376.078L64.5973 374.485L66.2627 378.677C66.5382 379.371 66.8752 379.922 67.2737 380.331C67.7007 380.752 68.1709 381.013 68.6842 381.117C69.218 381.212 69.7806 381.142 70.3722 380.907C70.9638 380.672 71.4109 380.34 71.7135 379.913C72.0366 379.478 72.209 378.961 72.2308 378.361C72.2607 377.783 72.1378 377.146 71.8623 376.453L70.1969 372.261Z" fill="#E07A5F"/>
<path d="M79.8676 395.308L84.2368 392.935L92.9404 408.965L88.5712 411.338L85.5391 405.753L69.6536 414.378L66.9985 409.488L82.884 400.863L79.8676 395.308Z" fill="#E07A5F"/>
<path d="M98.4803 417.731L101.698 422.271L89.3962 430.992C88.4472 431.665 87.8549 432.461 87.6194 433.382C87.3839 434.302 87.6216 435.263 88.3325 436.266C89.0561 437.287 89.8911 437.839 90.8375 437.921C91.7838 438.003 92.7316 437.708 93.6806 437.036L105.983 428.314L109.201 432.854L96.5763 441.803C95.3945 442.641 94.2252 443.174 93.0685 443.402C91.9245 443.648 90.8184 443.625 89.7503 443.333C88.7128 443.046 87.7207 442.539 86.7741 441.811C85.8402 441.1 84.9987 440.217 84.2497 439.161C83.5007 438.104 82.9458 437.018 82.5849 435.901C82.224 434.785 82.0736 433.681 82.1336 432.589C82.2242 431.502 82.5686 430.451 83.1668 429.435C83.7776 428.437 84.674 427.519 85.8559 426.681L98.4803 417.731Z" fill="#E07A5F"/>
<path d="M111.294 457.887L114.466 455.014L122.29 463.653C120.997 464.972 119.595 465.99 118.083 466.708C116.571 467.426 115.021 467.823 113.432 467.9C111.843 467.976 110.28 467.689 108.743 467.038C107.222 466.372 105.805 465.315 104.494 463.868C103.256 462.501 102.333 461.057 101.725 459.535C101.133 457.998 100.859 456.454 100.905 454.902C100.967 453.335 101.338 451.815 102.017 450.342C102.727 448.869 103.757 447.522 105.107 446.299C106.458 445.076 107.891 444.206 109.409 443.691C110.942 443.161 112.49 442.973 114.052 443.128C115.614 443.283 117.129 443.747 118.599 444.519C120.068 445.291 121.414 446.352 122.637 447.702C123.727 448.906 124.536 450.143 125.064 451.412C125.592 452.682 125.878 453.962 125.923 455.254C125.999 456.548 125.881 457.824 125.57 459.083L120.351 457.146C120.681 456.137 120.763 455.1 120.598 454.035C120.465 452.972 119.948 451.944 119.049 450.951C118.195 450.008 117.195 449.329 116.05 448.915C114.92 448.517 113.742 448.443 112.518 448.693C111.324 448.945 110.158 449.587 109.019 450.618C107.897 451.635 107.119 452.739 106.688 453.929C106.287 455.122 106.205 456.306 106.442 457.484C106.71 458.662 107.3 459.756 108.214 460.765C108.774 461.383 109.356 461.878 109.959 462.25C110.578 462.607 111.188 462.839 111.789 462.946C112.406 463.039 113.012 463.038 113.607 462.943C114.234 462.85 114.833 462.678 115.405 462.426L111.294 457.887Z" fill="#E07A5F"/>
<path d="M135.49 461.658L139.69 465.308L129.797 476.689C129.033 477.567 128.646 478.481 128.635 479.431C128.623 480.381 129.082 481.259 130.009 482.065C130.953 482.886 131.895 483.225 132.834 483.081C133.773 482.938 134.624 482.427 135.388 481.549L145.281 470.168L149.48 473.819L139.328 485.498C138.377 486.591 137.367 487.385 136.297 487.88C135.244 488.39 134.163 488.628 133.057 488.597C131.981 488.563 130.897 488.305 129.805 487.821C128.73 487.351 127.703 486.692 126.726 485.842C125.748 484.993 124.953 484.068 124.338 483.069C123.724 482.069 123.317 481.032 123.117 479.957C122.948 478.879 123.034 477.776 123.376 476.648C123.733 475.534 124.388 474.43 125.338 473.337L135.49 461.658Z" fill="#E07A5F"/>
<path d="M149.235 502.155L151.805 498.368L161.422 504.896L158.851 508.682L149.235 502.155ZM159.608 486.872L162.178 483.085L171.795 489.612L169.225 493.399L159.608 486.872ZM154.782 493.982L157.297 490.277L166.369 496.435L163.854 500.14L154.782 493.982ZM159.127 481.014L163.541 484.01L150.597 503.08L146.184 500.084L159.127 481.014Z" fill="#E07A5F"/>
<path d="M178.48 510.69C178.506 511.643 178.632 512.523 178.857 513.331C179.101 514.149 179.45 514.861 179.903 515.466C180.376 516.081 180.953 516.565 181.636 516.917C182.357 517.29 183.043 517.422 183.692 517.313C184.352 517.184 184.843 516.808 185.165 516.184C185.437 515.658 185.518 515.168 185.406 514.715C185.304 514.242 185.027 513.703 184.573 513.099C184.12 512.494 183.492 511.749 182.689 510.864C182.292 510.437 181.853 509.901 181.371 509.256C180.908 508.622 180.52 507.915 180.206 507.135C179.903 506.336 179.747 505.489 179.74 504.596C179.742 503.683 180.005 502.719 180.529 501.705C181.154 500.496 182.005 499.614 183.083 499.059C184.18 498.515 185.381 498.295 186.685 498.401C188.019 498.497 189.349 498.888 190.675 499.574C192.04 500.279 193.103 501.113 193.866 502.076C194.648 503.048 195.194 504.047 195.505 505.072C195.815 506.097 195.964 507.052 195.952 507.935L191.091 508.091C191.05 507.452 190.926 506.856 190.717 506.304C190.538 505.742 190.265 505.242 189.898 504.806C189.56 504.359 189.128 504 188.601 503.728C187.9 503.365 187.283 503.244 186.751 503.364C186.229 503.465 185.852 503.74 185.621 504.189C185.379 504.657 185.343 505.157 185.512 505.689C185.701 506.232 186.052 506.821 186.563 507.456C187.095 508.101 187.753 508.836 188.537 509.662C189.117 510.308 189.623 510.977 190.056 511.67C190.498 512.344 190.823 513.055 191.029 513.804C191.254 514.563 191.332 515.344 191.262 516.148C191.193 516.952 190.936 517.783 190.493 518.641C189.958 519.675 189.265 520.49 188.413 521.087C187.59 521.675 186.677 522.056 185.673 522.229C184.689 522.412 183.668 522.403 182.611 522.202C181.562 522.031 180.561 521.699 179.605 521.205C178.279 520.519 177.162 519.645 176.253 518.583C175.374 517.511 174.727 516.349 174.312 515.096C173.897 513.844 173.707 512.609 173.743 511.392L178.48 510.69Z" fill="#E07A5F"/>
<path d="M204.755 531.699L206.358 527.412L217.244 531.482L215.641 535.769L204.755 531.699ZM211.224 514.398L212.826 510.111L223.713 514.181L222.11 518.468L211.224 514.398ZM208.214 522.447L209.782 518.253L220.052 522.092L218.484 526.287L208.214 522.447ZM209.372 508.819L214.368 510.687L206.297 532.275L201.301 530.407L209.372 508.819Z" fill="#E07A5F"/>
<path d="M268.672 529.243L269.24 524.502L279.472 525.728L278.904 530.469L268.672 529.243ZM267.598 538.2L268.131 533.754L278.037 534.941L277.504 539.387L267.598 538.2ZM265.578 524.064L270.874 524.698L268.132 547.582L262.836 546.947L265.578 524.064Z" fill="#E07A5F"/>
<path d="M298.439 539.105H304.201L311.412 549.542H304.892L298.439 539.105ZM292.677 526.494H298.241V549.542H292.677V526.494ZM296.167 531.203V526.494H301.073C303.049 526.494 304.695 526.813 306.012 527.449C307.329 528.086 308.328 528.975 309.008 530.116C309.688 531.236 310.029 532.542 310.029 534.034C310.029 535.505 309.688 536.811 309.008 537.952C308.328 539.072 307.329 539.95 306.012 540.586C304.695 541.223 303.049 541.541 301.073 541.541H296.167V537.228H300.678C301.424 537.228 302.061 537.118 302.588 536.899C303.136 536.657 303.553 536.317 303.839 535.878C304.124 535.417 304.267 534.868 304.267 534.232C304.267 533.595 304.124 533.057 303.839 532.618C303.553 532.157 303.136 531.806 302.588 531.565C302.061 531.323 301.424 531.203 300.678 531.203H296.167Z" fill="#E07A5F"/>
<path d="M328.57 548.041L328.026 543.497L339.566 542.114L340.11 546.658L328.57 548.041ZM326.372 529.701L325.828 525.157L337.368 523.774L337.912 528.318L326.372 529.701ZM327.395 538.234L326.862 533.788L337.748 532.483L338.281 536.929L327.395 538.234ZM322.166 525.596L327.462 524.961L330.205 547.845L324.909 548.48L322.166 525.596Z" fill="#E07A5F"/>
<path d="M362.996 518.27L368.211 517.002L373.929 540.517L355.107 530.557L358.172 543.162L352.989 544.423L347.271 520.908L366.061 530.875L362.996 518.27Z" fill="#E07A5F"/>
<path d="M385.284 523.319C385.776 524.635 386.501 525.665 387.459 526.408C388.409 527.131 389.459 527.559 390.61 527.691C391.781 527.815 392.953 527.658 394.125 527.22C395.153 526.836 396.007 526.364 396.689 525.805C397.37 525.245 397.938 524.634 398.394 523.972C398.849 523.309 399.221 522.643 399.509 521.973L401.608 527.586C400.998 528.587 400.252 529.475 399.37 530.25C398.488 531.025 397.256 531.709 395.673 532.301C393.946 532.946 392.252 533.275 390.593 533.286C388.933 533.297 387.391 532.995 385.965 532.38C384.54 531.764 383.282 530.876 382.191 529.713C381.101 528.551 380.24 527.127 379.61 525.441C378.979 523.755 378.695 522.116 378.755 520.523C378.816 518.93 379.182 517.434 379.854 516.035C380.526 514.635 381.492 513.395 382.752 512.315C384.012 511.234 385.505 510.371 387.232 509.726C388.815 509.134 390.194 508.841 391.368 508.847C392.542 508.854 393.688 509.035 394.805 509.39L396.903 515.003C396.246 514.686 395.528 514.428 394.75 514.226C393.964 514.005 393.134 513.916 392.261 513.962C391.38 513.987 390.425 514.191 389.397 514.576C388.225 515.014 387.238 515.664 386.436 516.527C385.654 517.381 385.142 518.393 384.899 519.562C384.656 520.73 384.785 521.983 385.284 523.319Z" fill="#E07A5F"/>
<path d="M409.786 515.289L407.488 510.843L422.99 502.83L425.288 507.276L409.786 515.289ZM416.005 496.989L420.948 494.434L431.531 514.909L426.588 517.464L416.005 496.989ZM402.258 504.095L407.201 501.54L417.784 522.014L412.841 524.569L402.258 504.095Z" fill="#E07A5F"/>
<path d="M471.257 486.793L468.255 483.339L477.026 475.714L480.029 479.168L471.257 486.793ZM459.139 472.853L456.137 469.399L464.908 461.774L467.911 465.228L459.139 472.853ZM464.777 479.339L461.839 475.959L470.114 468.766L473.052 472.146L464.777 479.339ZM453.354 471.818L457.379 468.319L472.5 485.713L468.474 489.213L453.354 471.818Z" fill="#E07A5F"/>
<path d="M483.022 442.827L486.625 438.849L504.562 455.095L483.395 457.424L493.01 466.133L489.429 470.086L471.492 453.841L492.637 451.535L483.022 442.827Z" fill="#E07A5F"/>
<path d="M509.692 432.403L506.2 429.928L512.941 420.419C514.508 421.396 515.806 422.545 516.834 423.866C517.862 425.186 518.585 426.614 519.004 428.149C519.423 429.683 519.481 431.271 519.178 432.913C518.857 434.542 518.132 436.154 517.002 437.747C515.936 439.252 514.726 440.465 513.371 441.389C511.999 442.3 510.551 442.901 509.026 443.192C507.483 443.47 505.919 443.438 504.333 443.094C502.742 442.719 501.203 442.005 499.717 440.951C498.231 439.898 497.072 438.686 496.24 437.316C495.391 435.934 494.873 434.463 494.686 432.905C494.499 431.346 494.624 429.767 495.059 428.165C495.495 426.564 496.24 425.02 497.294 423.533C498.233 422.208 499.265 421.151 500.39 420.361C501.515 419.571 502.704 419.014 503.955 418.691C505.202 418.337 506.473 418.175 507.77 418.206L507.008 423.721C505.952 423.617 504.921 423.761 503.917 424.153C502.908 424.514 502.016 425.24 501.242 426.333C500.506 427.371 500.059 428.494 499.903 429.702C499.759 430.891 499.942 432.057 500.451 433.198C500.955 434.309 501.834 435.309 503.088 436.197C504.323 437.073 505.569 437.593 506.825 437.757C508.076 437.89 509.25 437.714 510.348 437.228C511.441 436.711 512.381 435.897 513.168 434.787C513.65 434.107 514.008 433.432 514.24 432.762C514.455 432.08 514.549 431.434 514.524 430.825C514.481 430.202 514.349 429.611 514.127 429.05C513.901 428.459 513.603 427.911 513.234 427.407L509.692 432.403Z" fill="#E07A5F"/>
<path d="M509.572 405.319L512.227 400.429L528.286 409.148L532.701 401.017L536.897 403.295L529.827 416.316L509.572 405.319Z" fill="#E07A5F"/>
<path d="M523.633 376.38L525.724 371.117L547.143 379.626L545.052 384.889L523.633 376.38Z" fill="#E07A5F"/>
<path d="M546.702 355.381C547.626 355.149 548.458 354.836 549.198 354.442C549.944 354.026 550.563 353.531 551.056 352.958C551.554 352.363 551.901 351.695 552.098 350.952C552.306 350.167 552.286 349.469 552.039 348.859C551.771 348.243 551.297 347.845 550.618 347.665C550.045 347.513 549.55 347.541 549.132 347.748C548.692 347.95 548.226 348.337 547.734 348.911C547.242 349.484 546.65 350.259 545.961 351.234C545.629 351.714 545.201 352.259 544.676 352.869C544.157 353.458 543.55 353.99 542.857 354.465C542.142 354.934 541.35 355.269 540.479 355.47C539.587 355.666 538.59 355.617 537.486 355.325C536.171 354.976 535.125 354.336 534.35 353.404C533.581 352.451 533.107 351.327 532.928 350.03C532.733 348.707 532.827 347.324 533.209 345.881C533.602 344.396 534.186 343.177 534.961 342.224C535.741 341.25 536.598 340.5 537.532 339.976C538.466 339.451 539.365 339.099 540.23 338.919L541.434 343.632C540.82 343.81 540.265 344.06 539.771 344.383C539.261 344.68 538.832 345.054 538.485 345.508C538.123 345.934 537.865 346.433 537.714 347.006C537.511 347.77 537.527 348.399 537.759 348.892C537.971 349.379 538.321 349.687 538.809 349.817C539.318 349.952 539.814 349.879 540.297 349.598C540.786 349.296 541.285 348.826 541.794 348.189C542.309 347.531 542.885 346.729 543.521 345.785C544.026 345.079 544.57 344.44 545.153 343.867C545.714 343.289 546.339 342.819 547.025 342.456C547.717 342.071 548.463 341.826 549.264 341.72C550.064 341.614 550.931 341.685 551.864 341.932C552.989 342.23 553.935 342.73 554.702 343.433C555.454 344.109 556.023 344.918 556.41 345.861C556.801 346.782 557.014 347.781 557.047 348.856C557.107 349.917 556.999 350.967 556.723 352.007C556.341 353.449 555.73 354.729 554.889 355.846C554.033 356.937 553.038 357.82 551.905 358.496C550.772 359.173 549.608 359.625 548.412 359.853L546.702 355.381Z" fill="#E07A5F"/>
<path d="M551.254 328.951L546.298 328.255L548.726 310.974L553.682 311.671L551.254 328.951ZM539.922 313.295L540.696 307.784L563.52 310.992L562.745 316.502L539.922 313.295ZM537.768 328.619L538.543 323.109L561.366 326.316L560.592 331.827L537.768 328.619Z" fill="#E07A5F"/>
<path d="M54.1137 229.321L55.4588 223.718L67.291 219.143L65.7692 225.482L54.1137 229.321ZM40.5067 231.98L41.8057 226.569L64.2165 231.949L62.9176 237.36L40.5067 231.98ZM45.8997 229.685L41.3214 228.586L42.4667 223.816C42.9279 221.895 43.6217 220.368 44.5481 219.236C45.4745 218.104 46.5721 217.34 47.8408 216.945C49.0882 216.545 50.4375 216.519 51.8889 216.867C53.3189 217.211 54.5095 217.847 55.4605 218.775C56.3902 219.698 57.0107 220.874 57.3223 222.303C57.6338 223.732 57.559 225.407 57.0978 227.328L55.9525 232.098L51.7585 231.092L52.8115 226.705C52.9857 225.98 53.0276 225.335 52.9372 224.772C52.8305 224.182 52.597 223.697 52.2368 223.317C51.8552 222.932 51.3549 222.665 50.7359 222.516C50.1169 222.368 49.5607 222.381 49.0672 222.556C48.5524 222.726 48.1135 223.049 47.7506 223.527C47.3929 223.982 47.1269 224.573 46.9527 225.299L45.8997 229.685Z" fill="#E07A5F"/>
<path d="M66.7888 206.623L62.9376 204.789L66.8737 194.063L70.9858 195.186L66.7888 206.623ZM59.3445 197.473L65.2184 203.066L66.4528 203.238L71.0297 207.969L68.8631 213.873L50.0407 194.059L77.2231 191.092L75.0452 197.027L68.745 197.661L67.4839 196.988L59.3445 197.473Z" fill="#E07A5F"/>
<path d="M70.7806 177.95C72.1128 178.623 73.4073 178.933 74.664 178.879C75.9307 178.806 77.0758 178.438 78.0995 177.774C79.1135 177.082 79.9125 176.157 80.4965 175.001C81.0904 173.826 81.3652 172.674 81.3208 171.545C81.2764 170.415 80.9274 169.378 80.2736 168.433C79.6102 167.459 78.6809 166.669 77.4858 166.066C76.2515 165.442 74.9963 165.128 73.7202 165.122C72.454 165.097 71.2796 165.402 70.1972 166.035C69.105 166.639 68.2274 167.598 67.5642 168.91C66.9703 170.086 66.7151 171.248 66.7986 172.397C66.8822 173.546 67.2655 174.612 67.9485 175.597C68.6219 176.552 69.5659 177.336 70.7806 177.95ZM68.1229 183.21C66.536 182.409 65.2297 181.392 64.2041 180.161C63.1785 178.929 62.4431 177.562 61.9978 176.058C61.5525 174.554 61.4167 172.998 61.5903 171.388C61.7443 169.769 62.2172 168.176 63.0091 166.609C63.8109 165.022 64.8128 163.696 66.0148 162.631C67.1973 161.556 68.516 160.771 69.9709 160.277C71.4357 159.763 72.9581 159.573 74.538 159.707C76.1278 159.822 77.7161 160.28 79.303 161.082C80.89 161.883 82.2159 162.885 83.2809 164.087C84.3459 165.289 85.1207 166.628 85.6054 168.102C86.09 169.577 86.2651 171.128 86.1307 172.757C85.9866 174.357 85.5087 175.96 84.6971 177.566C83.8755 179.192 82.8587 180.548 81.6468 181.632C80.4152 182.707 79.0523 183.506 77.558 184.03C76.0736 184.534 74.5267 184.724 72.9173 184.6C71.308 184.475 69.7098 184.012 68.1229 183.21ZM74.388 174.46L76.9863 169.318L91.1588 164.047L88.4714 169.366L74.388 174.46Z" fill="#E07A5F"/>
<path d="M74.1475 147.473L77.2152 142.831L89.7963 151.144C90.7669 151.785 91.7238 152.049 92.6669 151.936C93.6101 151.823 94.4205 151.253 95.0982 150.228C95.788 149.184 96.0001 148.206 95.7346 147.294C95.4691 146.382 94.8511 145.605 93.8805 144.963L81.2994 136.65L84.367 132.008L97.2778 140.539C98.4864 141.338 99.4063 142.235 100.037 143.231C100.681 144.208 101.059 145.248 101.173 146.349C101.281 147.42 101.167 148.529 100.831 149.675C100.507 150.802 99.9876 151.906 99.2736 152.987C98.5596 154.067 97.7475 154.978 96.8374 155.718C95.9272 156.458 94.9523 156.998 93.9126 157.337C92.8668 157.646 91.7621 157.705 90.5985 157.515C89.447 157.307 88.2669 156.803 87.0583 156.004L74.1475 147.473Z" fill="#E07A5F"/>
<path d="M112.935 132.875L109.434 129.927L116.922 121.038L120.422 123.986L112.935 132.875ZM98.8075 120.975L95.3072 118.027L102.795 109.138L106.295 112.086L98.8075 120.975ZM105.38 126.512L101.955 123.627L109.019 115.241L112.444 118.126L105.38 126.512ZM92.9315 120.847L96.3678 116.768L113.995 131.616L110.559 135.696L92.9315 120.847Z" fill="#E07A5F"/>
<path d="M114.411 97.1078L118.465 93.296L130.983 106.608L137.723 100.27L140.994 103.748L130.2 113.898L114.411 97.1078Z" fill="#E07A5F"/>
<path d="M163.015 65.1455L160.534 60.8371L176.342 51.7348L178.823 56.0432L173.316 59.2142L182.336 74.8788L177.514 77.6555L168.494 61.9909L163.015 65.1455Z" fill="#E07A5F"/>
<path d="M201.6 65.2453L199.791 61.0414L210.467 56.4473L212.276 60.6512L201.6 65.2453ZM194.299 48.2784L192.49 44.0745L203.166 39.4804L204.975 43.6844L194.299 48.2784ZM197.696 56.1721L195.926 52.0589L205.997 47.7251L207.767 51.8383L197.696 56.1721ZM189.103 45.5321L194.002 43.4238L203.112 64.5946L198.213 66.7029L189.103 45.5321Z" fill="#E07A5F"/>
<path d="M224.469 51.691L223.632 47.5082L234.579 44.2384L236.142 48.2044L224.469 51.691ZM227.34 40.2497L226.378 48.3031L226.979 49.3949L225.93 55.8934L219.905 57.6932L224.504 30.7538L243.156 50.7484L237.098 52.5576L232.818 47.8914L232.602 46.4782L227.34 40.2497Z" fill="#E07A5F"/>
<path d="M252.614 37.2282C252.858 38.6118 253.382 39.7564 254.188 40.6622C254.99 41.5463 255.945 42.1584 257.052 42.4985C258.181 42.8348 259.361 42.8945 260.594 42.6777C261.675 42.4875 262.601 42.1797 263.373 41.7541C264.145 41.3285 264.815 40.8317 265.384 40.2636C265.953 39.6956 266.44 39.1084 266.846 38.502L267.884 44.4038C267.102 45.2769 266.206 46.014 265.198 46.6149C264.189 47.2158 262.852 47.6627 261.188 47.9555C259.372 48.275 257.647 48.2888 256.013 47.9967C254.38 47.7047 252.918 47.126 251.629 46.2607C250.34 45.3954 249.266 44.2918 248.406 42.9499C247.546 41.6079 246.96 40.0506 246.648 38.2779C246.336 36.5053 246.355 34.8415 246.706 33.2866C247.056 31.7316 247.689 30.3276 248.606 29.0743C249.522 27.821 250.698 26.7783 252.134 25.9462C253.57 25.1141 255.196 24.5383 257.012 24.2188C258.676 23.926 260.085 23.8898 261.238 24.1104C262.392 24.331 263.485 24.7181 264.518 25.2717L265.557 31.1735C264.968 30.7421 264.31 30.3565 263.581 30.0166C262.849 29.6551 262.049 29.417 261.182 29.3021C260.311 29.1656 259.335 29.1924 258.255 29.3826C257.022 29.5994 255.933 30.0584 254.987 30.7598C254.062 31.4574 253.373 32.3586 252.921 33.4633C252.47 34.5681 252.367 35.823 252.614 37.2282Z" fill="#E07A5F"/>
<path d="M277.34 35.5266L277.049 30.5304L294.47 29.518L294.761 34.5142L277.34 35.5266ZM290.466 21.3406L296.021 21.0177L297.358 44.0266L291.803 44.3494L290.466 21.3406ZM275.017 22.2384L280.572 21.9156L281.91 44.9244L276.355 45.2472L275.017 22.2384Z" fill="#E07A5F"/>
<path d="M311.166 44.491L311.431 39.9221L323.034 40.5964L322.769 45.1653L311.166 44.491ZM312.237 26.0511L312.503 21.4822L324.106 22.1565L323.84 26.7254L312.237 26.0511ZM311.739 34.6301L311.999 30.1598L322.944 30.7959L322.684 35.2662L311.739 34.6301ZM308.822 21.2682L314.146 21.5777L312.809 44.5865L307.484 44.2771L308.822 21.2682Z" fill="#E07A5F"/>
<path d="M339.036 39.1423C339.345 40.0436 339.728 40.8464 340.183 41.5506C340.661 42.2586 341.206 42.8337 341.819 43.2759C342.454 43.7219 343.149 44.0114 343.906 44.1445C344.706 44.2852 345.399 44.2067 345.987 43.9088C346.578 43.5894 346.934 43.0838 347.056 42.392C347.158 41.8083 347.089 41.3169 346.847 40.9177C346.609 40.497 346.184 40.0655 345.57 39.6233C344.957 39.1812 344.136 38.6577 343.105 38.053C342.599 37.7633 342.02 37.3828 341.367 36.9114C340.736 36.4438 340.155 35.8846 339.623 35.2339C339.095 34.5615 338.694 33.8001 338.42 32.9496C338.15 32.0774 338.114 31.0793 338.312 29.9551C338.548 28.6148 339.097 27.5191 339.96 26.668C340.845 25.8207 341.925 25.253 343.202 24.965C344.504 24.6592 345.889 24.6355 347.36 24.8942C348.873 25.1604 350.137 25.6391 351.152 26.3303C352.189 27.0253 353.008 27.8158 353.61 28.7017C354.212 29.5877 354.639 30.454 354.891 31.3007L350.297 32.8995C350.068 32.302 349.771 31.7707 349.407 31.3055C349.069 30.8225 348.659 30.4272 348.179 30.1198C347.723 29.7945 347.204 29.5805 346.62 29.4778C345.842 29.3409 345.217 29.4092 344.745 29.6829C344.277 29.9349 344 30.3095 343.912 30.8067C343.821 31.3255 343.936 31.8138 344.256 32.2713C344.599 32.7327 345.109 33.1902 345.787 33.6438C346.486 34.1012 347.333 34.6068 348.328 35.1607C349.075 35.6041 349.758 36.092 350.377 36.6245C351.001 37.1353 351.522 37.7174 351.942 38.3707C352.384 39.0279 352.691 39.7506 352.864 40.5389C353.038 41.3271 353.041 42.1969 352.873 43.1481C352.672 44.2938 352.253 45.2789 351.618 46.1031C351.008 46.9096 350.25 47.5451 349.344 48.0097C348.459 48.4781 347.482 48.7742 346.413 48.8981C345.361 49.0475 344.306 49.0289 343.246 48.8426C341.776 48.5839 340.449 48.083 339.265 47.3398C338.106 46.5787 337.142 45.6624 336.372 44.5909C335.602 43.5194 335.053 42.3976 334.724 41.2254L339.036 39.1423Z" fill="#E07A5F"/>
<path d="M399.968 40.6001L405.08 42.7995L397.857 59.5849L406.355 63.2419L404.468 67.6273L390.858 61.7709L399.968 40.6001Z" fill="#E07A5F"/>
<path d="M418.689 70.033L421.151 66.5494L431.052 72.2507L429.246 76.1122L418.689 70.033ZM428.971 64.2516L422.462 69.0899L422.082 70.277L416.642 73.9835L411.192 70.8454L433.916 55.6632L432.221 82.9544L426.743 79.7998L427.188 73.4835L428.066 72.3552L428.971 64.2516Z" fill="#E07A5F"/>
<path d="M463.147 77.0168L467.456 80.2157L453.032 99.6472L448.655 78.8071L440.923 89.2234L436.64 86.0442L451.064 66.6127L455.414 87.4332L463.147 77.0168Z" fill="#E07A5F"/>
<path d="M472.731 104.719L475.663 101.6L484.154 109.585C482.971 111.003 481.655 112.131 480.205 112.967C478.756 113.804 477.242 114.324 475.665 114.528C474.087 114.732 472.506 114.571 470.921 114.045C469.352 113.503 467.856 112.563 466.432 111.225C465.089 109.961 464.053 108.596 463.325 107.127C462.612 105.643 462.216 104.126 462.137 102.575C462.073 101.009 462.321 99.464 462.879 97.9405C463.469 96.4161 464.388 94.9903 465.636 93.6631C466.884 92.3359 468.244 91.3546 469.715 90.7193C471.201 90.068 472.729 89.757 474.298 89.7864C475.868 89.8158 477.415 90.1565 478.942 90.8083C480.468 91.4602 481.895 92.4101 483.222 93.6582C484.405 94.7709 485.311 95.9388 485.939 97.1617C486.566 98.3847 486.954 99.6384 487.102 100.923C487.282 102.206 487.267 103.488 487.057 104.767L481.7 103.255C481.948 102.222 481.947 101.182 481.697 100.134C481.479 99.0846 480.882 98.1014 479.906 97.1841C478.979 96.312 477.928 95.7154 476.753 95.3944C475.595 95.0884 474.415 95.1091 473.215 95.4566C472.045 95.8031 470.934 96.536 469.882 97.6554C468.844 98.7587 468.158 99.9212 467.823 101.143C467.519 102.363 467.532 103.551 467.862 104.705C468.224 105.859 468.9 106.902 469.892 107.834C470.5 108.405 471.119 108.852 471.75 109.174C472.396 109.481 473.023 109.663 473.63 109.722C474.253 109.765 474.857 109.716 475.442 109.573C476.059 109.43 476.642 109.21 477.192 108.914L472.731 104.719Z" fill="#E07A5F"/>
<path d="M497.623 109.002L501.208 113.258L489.675 122.973C488.785 123.722 488.261 124.565 488.103 125.502C487.945 126.439 488.262 127.377 489.054 128.317C489.86 129.274 490.738 129.754 491.688 129.758C492.638 129.761 493.558 129.388 494.447 128.639L505.981 118.924L509.566 123.179L497.73 133.149C496.622 134.082 495.501 134.711 494.367 135.034C493.248 135.375 492.144 135.444 491.055 135.241C489.997 135.042 488.966 134.619 487.962 133.972C486.973 133.342 486.06 132.532 485.226 131.541C484.392 130.551 483.748 129.514 483.296 128.432C482.843 127.35 482.601 126.262 482.57 125.169C482.57 124.078 482.826 123.002 483.337 121.94C483.863 120.894 484.68 119.905 485.788 118.971L497.623 109.002Z" fill="#E07A5F"/>
<path d="M503.117 146.005L506.879 143.993L513.178 153.525L509.834 156.168L503.117 146.005ZM514.9 145.441L506.913 146.851L506.042 147.743L499.518 148.62L496.051 143.373L523.168 139.977L509.429 163.618L505.944 158.344L509.171 152.897L510.461 152.281L514.9 145.441Z" fill="#E07A5F"/>
<path d="M524.431 174.5L528.251 172.57L533.507 182.973C531.911 183.902 530.289 184.513 528.641 184.804C526.993 185.096 525.393 185.068 523.84 184.721C522.288 184.374 520.857 183.683 519.547 182.648C518.256 181.603 517.171 180.209 516.29 178.465C515.458 176.82 514.951 175.182 514.767 173.554C514.604 171.915 514.749 170.354 515.204 168.869C515.679 167.375 516.439 166.008 517.484 164.766C518.559 163.535 519.909 162.508 521.535 161.687C523.162 160.865 524.774 160.407 526.374 160.312C527.993 160.207 529.536 160.436 531.001 160.999C532.466 161.563 533.804 162.411 535.016 163.545C536.229 164.678 537.245 166.058 538.067 167.684C538.799 169.134 539.252 170.541 539.425 171.905C539.597 173.268 539.534 174.579 539.235 175.837C538.965 177.104 538.514 178.304 537.88 179.435L533.361 176.185C533.946 175.299 534.301 174.321 534.424 173.251C534.576 172.19 534.351 171.062 533.747 169.867C533.173 168.731 532.389 167.811 531.394 167.108C530.41 166.425 529.294 166.042 528.047 165.959C526.829 165.886 525.535 166.195 524.163 166.888C522.812 167.571 521.77 168.43 521.038 169.463C520.335 170.507 519.943 171.628 519.859 172.826C519.805 174.033 520.085 175.244 520.699 176.459C521.075 177.204 521.505 177.835 521.988 178.353C522.491 178.862 523.017 179.247 523.568 179.51C524.139 179.763 524.723 179.922 525.323 179.988C525.951 180.064 526.574 180.057 527.192 179.966L524.431 174.5Z" fill="#E07A5F"/>
<path d="M526.616 200.103L530.913 198.526L534.917 209.437L530.621 211.014L526.616 200.103ZM543.957 193.739L548.253 192.163L552.257 203.074L547.961 204.65L543.957 193.739ZM535.889 196.7L540.093 195.157L543.87 205.45L539.667 206.993L535.889 196.7ZM546.983 188.701L548.82 193.708L527.184 201.648L525.346 196.641L546.983 188.701Z" fill="#E07A5F"/>
<path d="M542.626 223.535C541.922 224.178 541.338 224.848 540.874 225.547C540.415 226.266 540.104 226.996 539.943 227.734C539.787 228.494 539.798 229.247 539.978 229.994C540.167 230.784 540.516 231.389 541.023 231.809C541.551 232.224 542.157 232.349 542.84 232.185C543.417 232.047 543.84 231.787 544.109 231.407C544.4 231.021 544.627 230.459 544.788 229.72C544.949 228.982 545.102 228.019 545.246 226.833C545.31 226.254 545.428 225.571 545.601 224.784C545.778 224.019 546.06 223.263 546.445 222.516C546.851 221.764 547.39 221.093 548.061 220.503C548.753 219.908 549.654 219.477 550.764 219.211C552.087 218.893 553.311 218.96 554.436 219.413C555.565 219.886 556.516 220.651 557.289 221.707C558.088 222.78 558.662 224.041 559.01 225.493C559.369 226.987 559.434 228.337 559.204 229.544C558.98 230.771 558.581 231.838 558.008 232.743C557.435 233.648 556.811 234.385 556.135 234.953L552.838 231.377C553.295 230.928 553.664 230.445 553.946 229.926C554.254 229.423 554.453 228.889 554.544 228.326C554.661 227.779 554.65 227.217 554.512 226.641C554.327 225.872 554.015 225.326 553.577 225.003C553.159 224.674 552.705 224.569 552.214 224.687C551.702 224.81 551.3 225.109 551.008 225.586C550.721 226.083 550.504 226.734 550.359 227.536C550.218 228.36 550.091 229.338 549.98 230.471C549.87 231.333 549.695 232.154 549.454 232.934C549.233 233.709 548.907 234.42 548.475 235.065C548.048 235.732 547.508 236.302 546.854 236.775C546.2 237.248 545.404 237.597 544.465 237.823C543.333 238.094 542.263 238.103 541.254 237.849C540.271 237.61 539.386 237.168 538.599 236.522C537.817 235.897 537.156 235.119 536.616 234.188C536.061 233.283 535.657 232.307 535.406 231.261C535.058 229.81 534.988 228.393 535.198 227.011C535.435 225.645 535.891 224.395 536.567 223.262C537.243 222.129 538.053 221.179 538.997 220.41L542.626 223.535Z" fill="#E07A5F"/>
<path d="M28.3561 281.517C28.3353 281.102 28.1453 279.941 28.1513 279.716C28.172 276.825 30.0063 267.298 30.3001 264.977L30.3179 264.834C30.4188 263.923 30.4574 262.84 30.7928 261.979C31.1312 261.112 32.2264 260.81 33.0158 260.504C36.2836 259.257 39.9729 258.207 43.4395 259.305C44.7929 259.732 46.0128 260.495 46.9922 261.697C47.9687 260.495 49.1916 259.732 50.542 259.305C54.0086 258.207 57.6979 259.257 60.9657 260.504C61.7552 260.807 62.8563 261.109 63.1917 261.979C63.5271 262.84 63.5657 263.92 63.6666 264.834L63.6844 264.977C63.9782 267.298 65.8095 276.825 65.8332 279.716C65.8392 279.944 65.6463 281.102 65.6255 281.517C65.5958 282.117 65.667 282.719 65.6374 283.316C65.6967 283.524 65.6433 283.72 65.5157 283.874C65.4326 284.034 65.3049 284.132 65.1654 284.183C64.8479 284.533 64.2721 284.301 63.8951 284.183C60.5175 283.09 56.8045 283.132 53.3201 283.595C52.7027 283.675 52.0883 283.776 51.4769 283.895C50.8418 284.019 50.2393 284.245 49.6308 284.462C49.1292 284.64 48.6039 284.788 48.0756 284.889C47.6957 284.975 47.3247 285.011 47.1555 285.014C47.0961 285.014 47.0427 285.008 46.9863 285.005C46.9299 285.005 46.8735 285.014 46.8171 285.014C46.648 285.014 46.277 284.978 45.8971 284.889C45.3687 284.788 44.8434 284.64 44.3418 284.462C43.7334 284.245 43.1279 284.019 42.4927 283.895C41.8813 283.776 41.2669 283.675 40.6496 283.595C37.1681 283.132 33.4521 283.09 30.0745 284.183C29.7006 284.304 29.1248 284.533 28.8072 284.183C28.6647 284.132 28.5401 284.034 28.457 283.874C28.3293 283.72 28.2759 283.524 28.3353 283.316C28.3145 282.716 28.3857 282.117 28.3561 281.517ZM55.1988 277.638C56.5611 277.594 57.9264 277.662 59.2739 277.852C60.4314 278.015 61.5741 278.273 62.6871 278.621C62.9572 278.704 63.26 278.772 63.5152 278.9C63.6785 278.983 63.812 279.078 63.9575 278.897C64.1593 278.653 64.0257 278.211 63.9931 277.932C63.9278 277.371 63.8536 276.813 63.7675 276.255C63.3935 273.771 62.8919 271.31 62.5506 268.82C62.4022 267.719 62.2805 266.609 62.1381 265.508C62.0668 264.941 61.9867 264.374 61.8947 263.81C61.7819 263.119 61.7581 262.632 61.1111 262.213C60.01 261.501 58.6892 261.186 57.4278 260.881C56.0685 260.551 54.7121 260.272 53.3052 260.326C52.3198 260.364 51.3612 260.626 50.4915 261.086C50.0701 261.308 49.6664 261.569 49.2836 261.857C48.9037 262.139 48.4406 262.442 48.1379 262.804C47.8678 263.125 47.7817 263.415 47.755 263.748C47.942 268.001 47.9123 278.546 47.8797 279.294C47.8767 279.357 47.8708 279.419 47.8678 279.481C47.8827 279.561 47.9272 279.624 48.0578 279.624C48.2151 279.627 48.3872 279.523 48.5237 279.452C48.8057 279.303 49.0906 279.161 49.3756 279.027C51.2187 278.158 53.1598 277.704 55.1988 277.638ZM30.033 278.894C30.1814 279.075 30.312 278.98 30.4752 278.897C30.7275 278.769 31.0302 278.701 31.3033 278.618C32.4163 278.27 33.559 278.015 34.7165 277.849C36.064 277.659 37.4323 277.594 38.7946 277.635C40.8306 277.701 42.7717 278.155 44.6178 279.024C44.9028 279.161 45.1877 279.303 45.4697 279.449C45.6062 279.52 45.7783 279.621 45.9386 279.621C46.0692 279.621 46.1137 279.559 46.1286 279.478C46.1256 279.416 46.1167 279.354 46.1167 279.291C46.084 278.543 46.0514 267.998 46.2413 263.745C46.2146 263.412 46.1286 263.122 45.8614 262.801C45.5528 262.439 45.0927 262.133 44.7128 261.854C44.3299 261.569 43.9293 261.305 43.5048 261.083C42.6322 260.623 41.6765 260.361 40.6911 260.323C39.2843 260.266 37.9279 260.548 36.5686 260.878C35.3072 261.184 33.9864 261.495 32.8823 262.21C32.2353 262.629 32.2115 263.116 32.0987 263.807C32.0067 264.371 31.9266 264.938 31.8553 265.505C31.7159 266.609 31.5942 267.716 31.4428 268.817C31.1015 271.304 30.5969 273.768 30.2259 276.252C30.1458 276.81 30.0656 277.368 30.0003 277.929C29.9647 278.208 29.8312 278.65 30.033 278.894Z" fill="#E07A5F"/>
<path d="M50.2393 263.647C53.05 262.329 56.8372 262.258 59.6657 263.611C60.4137 263.97 59.7607 265.054 59.0187 264.718C56.6116 263.62 53.3112 263.786 50.9754 264.905C50.1324 265.306 49.3934 264.045 50.2393 263.647ZM50.3283 267.119C53.3201 265.808 57.1667 265.312 60.1851 266.867C60.8411 267.206 60.2653 268.132 59.6153 267.841C56.8461 266.603 53.5279 267.33 50.8359 268.327C50.1384 268.589 49.6427 267.419 50.3283 267.119ZM50.4856 270.583C50.8032 270.316 51.2455 270.191 51.6283 270.052C54.4064 269.037 58.0956 268.995 60.7639 270.361C61.3516 270.66 60.8559 271.515 60.2771 271.349C58.8228 270.936 57.4546 270.708 55.9438 270.693C54.7596 270.681 53.6852 270.806 52.5544 271.144C52.213 271.245 51.8865 271.284 51.5601 271.438C51.3256 271.548 51.0347 271.687 50.7765 271.72C50.2126 271.788 50.0968 270.96 50.4144 270.645L50.4856 270.583ZM50.7795 273.928C53.9909 272.414 57.594 272.693 60.844 273.839C61.5148 274.077 61.1943 275.109 60.5116 274.896C58.9831 274.415 57.7098 274.056 56.0863 274.035C54.5251 274.017 52.8304 274.528 51.3998 275.089C50.6311 275.394 49.9989 274.296 50.7795 273.928ZM43.0151 264.902C40.6793 263.783 37.3789 263.62 34.9718 264.715C34.2328 265.054 33.5768 263.967 34.3248 263.608C37.1503 262.255 40.9375 262.326 43.7482 263.644C44.5971 264.045 43.861 265.306 43.0151 264.902ZM43.1517 268.327C40.4597 267.33 37.1414 266.603 34.3723 267.841C33.7223 268.132 33.1465 267.206 33.8024 266.867C36.8238 265.312 40.6704 265.808 43.6592 267.119C44.3448 267.419 43.8521 268.589 43.1517 268.327ZM43.214 271.723C42.9528 271.69 42.6679 271.551 42.4334 271.441C42.104 271.287 41.7775 271.248 41.4361 271.147C40.3053 270.812 39.2309 270.687 38.0467 270.696C36.5359 270.708 35.1647 270.936 33.7104 271.352C33.1346 271.518 32.6389 270.66 33.2236 270.364C35.8919 268.998 39.5841 269.04 42.3592 270.055C42.7421 270.194 43.1843 270.316 43.5049 270.586L43.5761 270.651C43.8966 270.96 43.775 271.791 43.214 271.723ZM33.1435 273.839C36.3935 272.693 39.9967 272.414 43.2081 273.928C43.9886 274.296 43.3565 275.394 42.5848 275.089C41.1572 274.528 39.4654 274.017 37.9012 274.035C36.2807 274.056 35.0045 274.415 33.4789 274.896C32.7933 275.112 32.4727 274.077 33.1435 273.839Z" fill="#E07A5F"/>
<path d="M569.644 281.517C569.665 281.102 569.855 279.941 569.849 279.716C569.828 276.825 567.994 267.298 567.7 264.977L567.682 264.834C567.581 263.923 567.543 262.84 567.207 261.979C566.869 261.112 565.774 260.81 564.984 260.504C561.716 259.257 558.027 258.207 554.56 259.305C553.207 259.732 551.987 260.495 551.008 261.697C550.031 260.495 548.808 259.732 547.458 259.305C543.991 258.207 540.302 259.257 537.034 260.504C536.245 260.807 535.144 261.109 534.808 261.979C534.473 262.84 534.434 263.92 534.333 264.834L534.316 264.977C534.022 267.298 532.19 276.825 532.167 279.716C532.161 279.944 532.354 281.102 532.374 281.517C532.404 282.117 532.333 282.72 532.363 283.316C532.303 283.524 532.357 283.72 532.484 283.874C532.567 284.034 532.695 284.132 532.835 284.183C533.152 284.533 533.728 284.301 534.105 284.183C537.482 283.091 541.195 283.132 544.68 283.595C545.297 283.675 545.912 283.776 546.523 283.895C547.158 284.02 547.761 284.245 548.369 284.462C548.871 284.64 549.396 284.788 549.924 284.889C550.304 284.975 550.675 285.011 550.844 285.014C550.904 285.014 550.957 285.008 551.014 285.005C551.07 285.005 551.126 285.014 551.183 285.014C551.352 285.014 551.723 284.978 552.103 284.889C552.631 284.788 553.157 284.64 553.658 284.462C554.267 284.245 554.872 284.02 555.507 283.895C556.119 283.776 556.733 283.675 557.35 283.595C560.832 283.132 564.548 283.091 567.925 284.183C568.299 284.304 568.875 284.533 569.193 284.183C569.335 284.132 569.46 284.034 569.543 283.874C569.671 283.72 569.724 283.524 569.665 283.316C569.685 282.717 569.614 282.117 569.644 281.517ZM542.801 277.638C541.439 277.594 540.074 277.662 538.726 277.852C537.568 278.015 536.426 278.273 535.313 278.621C535.043 278.704 534.74 278.772 534.485 278.9C534.321 278.983 534.188 279.078 534.042 278.897C533.841 278.653 533.974 278.211 534.007 277.932C534.072 277.371 534.146 276.813 534.232 276.255C534.606 273.771 535.108 271.31 535.449 268.82C535.598 267.719 535.719 266.609 535.862 265.508C535.933 264.941 536.013 264.374 536.105 263.81C536.218 263.119 536.242 262.632 536.889 262.213C537.99 261.501 539.311 261.187 540.572 260.881C541.931 260.551 543.288 260.272 544.695 260.326C545.68 260.364 546.639 260.626 547.508 261.086C547.93 261.308 548.334 261.569 548.716 261.857C549.096 262.139 549.559 262.442 549.862 262.804C550.132 263.125 550.218 263.416 550.245 263.748C550.058 268.001 550.088 278.546 550.12 279.294C550.123 279.357 550.129 279.419 550.132 279.481C550.117 279.562 550.073 279.624 549.942 279.624C549.785 279.627 549.613 279.523 549.476 279.452C549.194 279.303 548.909 279.161 548.624 279.027C546.781 278.158 544.84 277.704 542.801 277.638ZM567.967 278.894C567.819 279.075 567.688 278.98 567.525 278.897C567.272 278.769 566.97 278.701 566.697 278.618C565.584 278.27 564.441 278.015 563.283 277.849C561.936 277.659 560.568 277.594 559.205 277.635C557.169 277.701 555.228 278.155 553.382 279.024C553.097 279.161 552.812 279.303 552.53 279.449C552.394 279.52 552.222 279.621 552.061 279.621C551.931 279.621 551.886 279.559 551.871 279.478C551.874 279.416 551.883 279.354 551.883 279.291C551.916 278.544 551.949 267.998 551.759 263.745C551.785 263.413 551.871 263.122 552.139 262.801C552.447 262.439 552.907 262.133 553.287 261.854C553.67 261.569 554.071 261.305 554.495 261.083C555.368 260.623 556.323 260.361 557.309 260.323C558.716 260.266 560.072 260.548 561.431 260.878C562.693 261.184 564.014 261.495 565.118 262.211C565.765 262.629 565.788 263.116 565.901 263.807C565.993 264.371 566.073 264.938 566.145 265.505C566.284 266.609 566.406 267.716 566.557 268.817C566.898 271.305 567.403 273.768 567.774 276.252C567.854 276.81 567.934 277.368 568 277.929C568.035 278.208 568.169 278.65 567.967 278.894Z" fill="#E07A5F"/>
<path d="M547.761 263.647C544.95 262.329 541.163 262.258 538.334 263.611C537.586 263.97 538.239 265.054 538.981 264.718C541.388 263.62 544.689 263.786 547.025 264.905C547.868 265.306 548.607 264.045 547.761 263.647ZM547.672 267.12C544.68 265.808 540.833 265.312 537.815 266.867C537.159 267.206 537.735 268.132 538.385 267.841C541.154 266.603 544.472 267.33 547.164 268.328C547.862 268.589 548.357 267.419 547.672 267.12ZM547.514 270.583C547.197 270.316 546.755 270.191 546.372 270.052C543.594 269.037 539.904 268.995 537.236 270.361C536.648 270.66 537.144 271.515 537.723 271.349C539.177 270.936 540.545 270.708 542.056 270.693C543.24 270.681 544.315 270.806 545.446 271.144C545.787 271.245 546.113 271.284 546.44 271.438C546.674 271.548 546.965 271.687 547.223 271.72C547.787 271.788 547.903 270.96 547.586 270.646L547.514 270.583ZM547.221 273.928C544.009 272.414 540.406 272.693 537.156 273.839C536.485 274.077 536.806 275.109 537.488 274.896C539.017 274.415 540.29 274.056 541.914 274.035C543.475 274.017 545.17 274.528 546.6 275.089C547.369 275.394 548.001 274.296 547.221 273.928ZM554.985 264.902C557.321 263.783 560.621 263.62 563.028 264.715C563.767 265.054 564.423 263.968 563.675 263.608C560.85 262.255 557.062 262.326 554.252 263.644C553.403 264.045 554.139 265.306 554.985 264.902ZM554.848 268.328C557.54 267.33 560.859 266.603 563.628 267.841C564.278 268.132 564.854 267.206 564.198 266.867C561.176 265.312 557.33 265.808 554.341 267.12C553.655 267.419 554.148 268.589 554.848 268.328ZM554.786 271.723C555.047 271.69 555.332 271.551 555.567 271.441C555.896 271.287 556.223 271.248 556.564 271.147C557.695 270.812 558.769 270.687 559.953 270.696C561.464 270.708 562.835 270.936 564.29 271.352C564.865 271.518 565.361 270.66 564.776 270.364C562.108 268.998 558.416 269.04 555.641 270.055C555.258 270.194 554.816 270.316 554.495 270.586L554.424 270.651C554.103 270.96 554.225 271.791 554.786 271.723ZM564.856 273.839C561.607 272.693 558.003 272.414 554.792 273.928C554.011 274.296 554.644 275.394 555.415 275.089C556.843 274.528 558.535 274.017 560.099 274.035C561.719 274.056 562.996 274.415 564.521 274.896C565.207 275.112 565.527 274.077 564.856 273.839Z" fill="#E07A5F"/>
<circle cx="241.381" cy="532.843" r="4.43224" fill="#E07A5F"/>
<circle cx="446.53" cy="496.119" r="4.43224" fill="#E07A5F"/>
</svg>
