<svg width="350" height="350" viewBox="0 0 350 350" fill="none" xmlns="http://www.w3.org/2000/svg">
<path d="M122.5 50H227.5C267.5 50 300 82.5 300 122.5V227.5C300 246.728 292.362 265.169 278.765 278.765C265.169 292.362 246.728 300 227.5 300H122.5C82.5 300 50 267.5 50 227.5V122.5C50 103.272 57.6384 84.8311 71.2348 71.2348C84.8311 57.6384 103.272 50 122.5 50ZM120 75C108.065 75 96.6193 79.7411 88.1802 88.1802C79.7411 96.6193 75 108.065 75 120V230C75 254.875 95.125 275 120 275H230C241.935 275 253.381 270.259 261.82 261.82C270.259 253.381 275 241.935 275 230V120C275 95.125 254.875 75 230 75H120ZM240.625 93.75C244.769 93.75 248.743 95.3962 251.674 98.3265C254.604 101.257 256.25 105.231 256.25 109.375C256.25 113.519 254.604 117.493 251.674 120.424C248.743 123.354 244.769 125 240.625 125C236.481 125 232.507 123.354 229.576 120.424C226.646 117.493 225 113.519 225 109.375C225 105.231 226.646 101.257 229.576 98.3265C232.507 95.3962 236.481 93.75 240.625 93.75ZM175 112.5C191.576 112.5 207.473 119.085 219.194 130.806C230.915 142.527 237.5 158.424 237.5 175C237.5 191.576 230.915 207.473 219.194 219.194C207.473 230.915 191.576 237.5 175 237.5C158.424 237.5 142.527 230.915 130.806 219.194C119.085 207.473 112.5 191.576 112.5 175C112.5 158.424 119.085 142.527 130.806 130.806C142.527 119.085 158.424 112.5 175 112.5ZM175 137.5C165.054 137.5 155.516 141.451 148.483 148.483C141.451 155.516 137.5 165.054 137.5 175C137.5 184.946 141.451 194.484 148.483 201.517C155.516 208.549 165.054 212.5 175 212.5C184.946 212.5 194.484 208.549 201.517 201.517C208.549 194.484 212.5 184.946 212.5 175C212.5 165.054 208.549 155.516 201.517 148.483C194.484 141.451 184.946 137.5 175 137.5Z" fill="#3D405B"/>
</svg>
