<svg width="350" height="350" viewBox="0 0 350 350" fill="none" xmlns="http://www.w3.org/2000/svg">
<path d="M153.1 216.1C153.1 203.05 149.5 191.95 142.3 182.8C131.35 169 110.2 167.35 97.9 170.05C92.8 141.1 117.4 104.2 149.2 88.3001L124.75 54.1001C76.75 76.9001 29.65 129.4 37.75 195.55C42.85 237.4 67 265 101.2 265C116.2 265 128.65 260.65 138.4 251.8C148.3 242.95 153.1 231.1 153.1 216.1ZM294.55 216.1C294.55 203.05 290.95 191.95 283.75 182.8C272.8 169 251.65 167.35 239.35 170.05C234.25 141.1 258.85 104.2 290.65 88.3001L266.2 54.1001C218.2 76.9001 171.1 129.4 179.2 195.55C184.3 237.4 208.45 265 242.65 265C257.65 265 270.1 260.65 279.85 251.8C289.75 242.95 294.55 231.1 294.55 216.1Z" fill="#E07A5F"/>
</svg>
