<svg width="350" height="350" viewBox="0 0 350 350" fill="none" xmlns="http://www.w3.org/2000/svg">
<path d="M196.9 133.9C196.9 146.95 200.5 158.05 207.7 167.2C218.65 181 239.8 182.65 252.1 179.95C257.2 208.9 232.6 245.8 200.8 261.7L225.25 295.9C273.25 273.1 320.35 220.6 312.25 154.45C307.15 112.6 283 84.9999 248.8 84.9999C233.8 84.9999 221.35 89.3499 211.6 98.1999C201.7 107.05 196.9 118.9 196.9 133.9ZM55.45 133.9C55.45 146.95 59.05 158.05 66.25 167.2C77.2 181 98.35 182.65 110.65 179.95C115.75 208.9 91.15 245.8 59.35 261.7L83.8 295.9C131.8 273.1 178.9 220.6 170.8 154.45C165.7 112.6 141.55 84.9999 107.35 84.9999C92.35 84.9999 79.9 89.3499 70.15 98.1999C60.25 107.05 55.45 118.9 55.45 133.9Z" fill="#E07A5F"/>
</svg>
