<svg xmlns="http://www.w3.org/2000/svg" version="1.1" xmlns:xlink="http://www.w3.org/1999/xlink" width="1000" height="1000"><style>
    #light-icon {
      display: inline;
    }
    #dark-icon {
      display: none;
    }

    @media (prefers-color-scheme: dark) {
      #light-icon {
        display: none;
      }
      #dark-icon {
        display: inline;
      }
    }
  </style><g id="light-icon"><svg xmlns="http://www.w3.org/2000/svg" version="1.1" xmlns:xlink="http://www.w3.org/1999/xlink" width="1000" height="1000"><g clip-path="url(#SvgjsClipPath1127)"><rect width="1000" height="1000" fill="#3d405b"></rect><g transform="matrix(1.0666666666666667,0,0,1.0666666666666667,100,100)"><svg xmlns="http://www.w3.org/2000/svg" version="1.1" xmlns:xlink="http://www.w3.org/1999/xlink" width="750" height="750"><svg width="750" height="750" viewBox="0 0 750 750" fill="none" xmlns="http://www.w3.org/2000/svg">
<g clip-path="url(#clip0_31_565)">
<path d="M205.676 239.517H257.342C284.588 239.517 305.665 245.3 320.573 256.867C335.739 268.177 343.321 284.113 343.321 304.676C343.321 320.613 338.566 333.851 329.056 344.389C319.803 354.928 306.308 361.996 288.573 365.594V367.909C305.537 371.25 319.417 379.219 330.213 391.813C341.008 404.409 349.105 419.959 354.503 438.466C359.386 455.431 364.143 468.669 368.768 478.179C373.653 487.433 378.922 494.116 384.576 498.227C390.489 502.34 397.429 505.296 405.398 507.096V509.409H389.59C378.28 509.409 368.898 507.352 361.443 503.241C354.246 499.128 348.078 492.188 342.936 482.419C337.795 472.652 332.912 459.157 328.285 441.936C320.831 415.461 310.934 396.697 298.597 385.644C286.258 374.592 271.222 369.065 253.486 369.065H251.173V362.125H253.486C294.869 362.125 315.561 343.104 315.561 305.062C315.561 267.534 296.155 248.771 257.342 248.771H231.895V509.409H205.676V239.517ZM458.867 509.409V247.228C455.011 247.228 447.043 247.999 434.961 249.541L359.391 259.18V239.517H584.56V259.18L508.99 249.541C496.908 247.999 488.94 247.228 485.084 247.228V509.409H458.867Z" fill="#F4F1DE"></path>
<path d="M70.2554 408.778L71.2462 415.828L42.049 419.931L41.0583 412.882L70.2554 408.778ZM65.0791 414.014L70.8768 413.201L71.6798 418.914C72.0277 421.389 71.9295 423.515 71.3855 425.294C70.873 427.095 69.9683 428.526 68.6714 429.588C67.3743 430.65 65.7249 431.32 63.7227 431.602C61.7763 431.875 60.0195 431.684 58.4524 431.025C56.913 430.362 55.6349 429.236 54.6179 427.65C53.6327 426.087 52.9661 424.068 52.6183 421.594L51.8153 415.88L57.6129 415.065L58.416 420.779C58.6154 422.196 59.0915 423.263 59.8443 423.981C60.5972 424.697 61.5715 424.971 62.7672 424.804C63.9907 424.631 64.8656 424.097 65.3917 423.201C65.918 422.304 66.0815 421.148 65.8822 419.729L65.0791 414.014Z" fill="#F4F1DE"></path>
<path d="M62.6409 450.448C60.9579 450.893 59.5512 451.615 58.4209 452.612C57.3248 453.627 56.5685 454.83 56.1518 456.219C55.7425 457.634 55.7535 459.156 56.1847 460.785C56.6089 462.386 57.3455 463.687 58.3948 464.688C59.4512 465.715 60.7035 466.385 62.1518 466.699C63.6345 467.033 65.2172 466.976 66.9002 466.531C68.5831 466.085 69.9762 465.368 71.0794 464.378C72.2099 463.382 72.9834 462.189 73.3999 460.801C73.8165 459.412 73.8055 457.891 73.367 456.234C72.9358 454.606 72.1919 453.278 71.1355 452.251C70.0863 451.25 68.8204 450.584 67.3377 450.25C65.8895 449.937 64.3238 450.002 62.6409 450.448ZM60.7107 443.16C62.9094 442.577 65.0187 442.426 67.0386 442.704C69.0657 443.009 70.9277 443.678 72.6244 444.711C74.3211 445.743 75.7704 447.102 76.9721 448.788C78.201 450.466 79.103 452.391 79.6781 454.564C80.2605 456.761 80.4296 458.881 80.1855 460.922C79.9757 462.981 79.3891 464.88 78.4257 466.616C77.4622 468.353 76.1718 469.842 74.5544 471.083C72.9371 472.325 71.029 473.237 68.8304 473.819C66.6317 474.401 64.5087 474.557 62.4617 474.286C60.4218 474.042 58.54 473.407 56.816 472.383C55.0994 471.385 53.613 470.05 52.357 468.378C51.128 466.699 50.2189 464.747 49.6294 462.521C49.0327 460.268 48.8529 458.109 49.0898 456.041C49.3537 453.968 49.981 452.058 50.9716 450.314C51.9694 448.597 53.2905 447.114 54.9351 445.866C56.5868 444.644 58.5119 443.742 60.7107 443.16Z" fill="#F4F1DE"></path>
<path d="M74.4787 492.653L77.2002 499.503L68.1972 513.005L65.1181 505.255L74.4787 492.653ZM86.7496 479.847L89.3777 486.462L61.9768 497.348L59.3486 490.732L86.7496 479.847ZM82.8004 486.22L88.398 483.997L90.715 489.829C91.6481 492.178 92.0473 494.284 91.9126 496.151C91.7779 498.017 91.1926 499.625 90.157 500.972C89.1474 502.311 87.7555 503.331 85.9809 504.036C84.2325 504.731 82.5191 504.943 80.8407 504.673C79.1884 504.393 77.6728 503.621 76.294 502.355C74.9152 501.091 73.7593 499.284 72.8262 496.935L70.5091 491.103L75.637 489.065L77.7675 494.428C78.1199 495.316 78.551 496.02 79.0608 496.544C79.6071 497.082 80.2086 497.416 80.8652 497.549C81.5481 497.671 82.2678 497.581 83.0246 497.281C83.7814 496.98 84.3534 496.555 84.7405 496.009C85.1538 495.452 85.3744 494.791 85.4023 494.023C85.4405 493.284 85.2833 492.469 84.9308 491.583L82.8004 486.22Z" fill="#F4F1DE"></path>
<path d="M95.1717 515.703L100.761 512.667L111.895 533.174L106.306 536.21L102.427 529.065L82.1053 540.099L78.7087 533.843L99.0305 522.809L95.1717 515.703Z" fill="#F4F1DE"></path>
<path d="M118.982 544.388L123.099 550.196L107.361 561.353C106.147 562.213 105.39 563.232 105.088 564.41C104.787 565.587 105.091 566.816 106.001 568.099C106.926 569.405 107.995 570.112 109.205 570.217C110.416 570.321 111.628 569.944 112.842 569.084L128.58 557.927L132.697 563.735L116.547 575.183C115.035 576.255 113.539 576.937 112.059 577.228C110.596 577.543 109.181 577.513 107.814 577.14C106.487 576.773 105.218 576.124 104.007 575.193C102.812 574.283 101.736 573.154 100.778 571.803C99.8195 570.451 99.1096 569.061 98.6479 567.632C98.1863 566.205 97.9939 564.792 98.0706 563.395C98.1865 562.005 98.6271 560.66 99.3924 559.361C100.174 558.084 101.32 556.91 102.832 555.838L118.982 544.388Z" fill="#F4F1DE"></path>
<path d="M135.375 595.757L139.433 592.082L149.442 603.134C147.787 604.821 145.994 606.123 144.06 607.042C142.125 607.96 140.143 608.468 138.11 608.567C136.077 608.664 134.078 608.297 132.111 607.464C130.166 606.612 128.353 605.26 126.676 603.409C125.092 601.66 123.911 599.813 123.133 597.866C122.376 595.899 122.026 593.924 122.084 591.939C122.164 589.934 122.638 587.99 123.507 586.105C124.415 584.221 125.733 582.498 127.46 580.933C129.188 579.369 131.021 578.256 132.963 577.597C134.924 576.919 136.905 576.678 138.903 576.877C140.901 577.075 142.839 577.669 144.72 578.656C146.599 579.644 148.321 581.001 149.885 582.728C151.28 584.268 152.315 585.851 152.99 587.474C153.666 589.099 154.032 590.736 154.089 592.389C154.186 594.045 154.035 595.677 153.638 597.287L146.961 594.81C147.383 593.519 147.488 592.192 147.277 590.83C147.107 589.47 146.446 588.155 145.295 586.884C144.203 585.678 142.924 584.81 141.459 584.28C140.013 583.771 138.506 583.676 136.941 583.996C135.413 584.318 133.922 585.14 132.464 586.459C131.029 587.76 130.034 589.172 129.482 590.694C128.969 592.22 128.865 593.735 129.168 595.242C129.511 596.749 130.265 598.148 131.435 599.439C132.151 600.23 132.896 600.863 133.667 601.339C134.459 601.796 135.239 602.092 136.008 602.229C136.797 602.348 137.573 602.347 138.334 602.225C139.136 602.106 139.902 601.886 140.634 601.564L135.375 595.757Z" fill="#F4F1DE"></path>
<path d="M166.327 600.582L171.7 605.251L159.045 619.811C158.067 620.934 157.572 622.103 157.558 623.318C157.543 624.534 158.13 625.657 159.316 626.688C160.523 627.738 161.728 628.172 162.93 627.988C164.131 627.805 165.22 627.151 166.197 626.028L178.853 611.469L184.224 616.139L171.237 631.08C170.021 632.478 168.729 633.494 167.36 634.127C166.013 634.779 164.63 635.084 163.215 635.044C161.838 635.001 160.452 634.671 159.055 634.051C157.68 633.45 156.366 632.607 155.116 631.52C153.865 630.434 152.848 629.25 152.061 627.972C151.276 626.693 150.755 625.367 150.499 623.991C150.283 622.612 150.393 621.201 150.83 619.758C151.287 618.333 152.125 616.921 153.34 615.523L166.327 600.582Z" fill="#F4F1DE"></path>
<path d="M183.911 652.389L187.199 647.544L199.501 655.895L196.212 660.738L183.911 652.389ZM197.181 632.838L200.468 627.993L212.771 636.343L209.483 641.187L197.181 632.838ZM191.007 641.933L194.224 637.194L205.83 645.071L202.612 649.811L191.007 641.933ZM196.565 625.344L202.212 629.176L185.653 653.572L180.008 649.739L196.565 625.344Z" fill="#F4F1DE"></path>
<path d="M221.323 663.308C221.356 664.527 221.518 665.653 221.805 666.686C222.118 667.733 222.564 668.643 223.144 669.417C223.749 670.204 224.487 670.823 225.361 671.274C226.283 671.751 227.16 671.92 227.991 671.78C228.835 671.615 229.463 671.134 229.875 670.336C230.223 669.663 230.327 669.036 230.183 668.457C230.053 667.852 229.699 667.162 229.118 666.389C228.538 665.615 227.735 664.662 226.708 663.53C226.2 662.984 225.638 662.298 225.022 661.473C224.429 660.662 223.933 659.758 223.531 658.76C223.144 657.738 222.944 656.654 222.935 655.512C222.938 654.344 223.274 653.111 223.944 651.813C224.744 650.267 225.833 649.139 227.212 648.429C228.615 647.733 230.151 647.451 231.82 647.587C233.526 647.71 235.228 648.21 236.924 649.087C238.67 649.989 240.03 651.056 241.006 652.288C242.006 653.532 242.705 654.81 243.103 656.121C243.499 657.432 243.69 658.654 243.674 659.783L237.456 659.983C237.404 659.165 237.245 658.403 236.978 657.697C236.749 656.978 236.399 656.338 235.93 655.78C235.497 655.209 234.945 654.749 234.271 654.401C233.374 653.937 232.585 653.782 231.904 653.936C231.236 654.065 230.754 654.417 230.458 654.991C230.149 655.59 230.103 656.229 230.319 656.91C230.561 657.605 231.01 658.358 231.663 659.171C232.344 659.996 233.186 660.936 234.189 661.993C234.931 662.819 235.578 663.675 236.132 664.561C236.697 665.424 237.113 666.333 237.377 667.291C237.665 668.262 237.764 669.261 237.675 670.29C237.586 671.318 237.258 672.381 236.691 673.479C236.007 674.802 235.12 675.844 234.03 676.608C232.977 677.36 231.809 677.848 230.525 678.069C229.266 678.303 227.96 678.292 226.608 678.035C225.266 677.816 223.985 677.391 222.762 676.759C221.066 675.882 219.637 674.763 218.474 673.405C217.35 672.034 216.522 670.547 215.991 668.944C215.46 667.342 215.217 665.763 215.263 664.206L221.323 663.308Z" fill="#F4F1DE"></path>
<path d="M254.936 690.184L256.986 684.699L270.912 689.906L268.862 695.39L254.936 690.184ZM263.211 668.051L265.261 662.567L279.188 667.774L277.137 673.258L263.211 668.051ZM259.361 678.348L261.367 672.983L274.505 677.894L272.499 683.26L259.361 678.348ZM260.842 660.914L267.233 663.304L256.908 690.921L250.517 688.531L260.842 660.914Z" fill="#F4F1DE"></path>
<path d="M336.702 687.041L337.429 680.976L350.518 682.545L349.792 688.61L336.702 687.041ZM335.328 698.5L336.01 692.812L348.682 694.331L348.001 700.018L335.328 698.5ZM332.744 680.416L339.519 681.227L336.011 710.502L329.236 709.689L332.744 680.416Z" fill="#F4F1DE"></path>
<path d="M374.782 699.658H382.153L391.378 713.009H383.037L374.782 699.658ZM367.411 683.525H374.529V713.009H367.411V683.525ZM371.876 689.549V683.525H378.152C380.68 683.525 382.785 683.933 384.47 684.747C386.155 685.561 387.433 686.699 388.303 688.158C389.173 689.591 389.609 691.262 389.609 693.171C389.609 695.052 389.173 696.723 388.303 698.183C387.433 699.615 386.155 700.739 384.47 701.552C382.785 702.367 380.68 702.774 378.152 702.774H371.876V697.257H377.647C378.601 697.257 379.416 697.116 380.09 696.836C380.791 696.526 381.324 696.091 381.69 695.529C382.055 694.94 382.238 694.237 382.238 693.424C382.238 692.609 382.055 691.921 381.69 691.359C381.324 690.769 380.791 690.32 380.09 690.012C379.416 689.702 378.601 689.549 377.647 689.549H371.876Z" fill="#F4F1DE"></path>
<path d="M413.328 711.088L412.632 705.275L427.394 703.506L428.09 709.319L413.328 711.088ZM410.516 687.627L409.82 681.814L424.583 680.044L425.279 685.857L410.516 687.627ZM411.825 698.543L411.143 692.855L425.069 691.186L425.751 696.873L411.825 698.543ZM405.135 682.375L411.91 681.563L415.419 710.838L408.644 711.65L405.135 682.375Z" fill="#F4F1DE"></path>
<path d="M457.368 673.003L464.039 671.381L471.354 701.463L447.276 688.722L451.197 704.847L444.566 706.46L437.251 676.378L461.289 689.129L457.368 673.003Z" fill="#F4F1DE"></path>
<path d="M485.88 679.463C486.509 681.146 487.437 682.464 488.662 683.415C489.878 684.339 491.221 684.887 492.693 685.056C494.191 685.214 495.691 685.014 497.19 684.453C498.505 683.962 499.597 683.358 500.47 682.643C501.341 681.927 502.068 681.145 502.651 680.298C503.233 679.45 503.709 678.598 504.077 677.741L506.763 684.921C505.982 686.202 505.028 687.338 503.9 688.329C502.771 689.321 501.195 690.196 499.17 690.953C496.961 691.778 494.794 692.199 492.672 692.213C490.548 692.227 488.575 691.841 486.751 691.054C484.928 690.266 483.319 689.13 481.923 687.642C480.529 686.156 479.427 684.334 478.621 682.177C477.814 680.021 477.451 677.924 477.528 675.886C477.606 673.848 478.074 671.934 478.934 670.145C479.793 668.354 481.029 666.767 482.641 665.386C484.253 664.003 486.163 662.899 488.372 662.074C490.397 661.317 492.161 660.942 493.663 660.949C495.165 660.958 496.631 661.19 498.06 661.644L500.744 668.824C499.903 668.419 498.985 668.089 497.989 667.831C496.984 667.548 495.922 667.434 494.805 667.493C493.678 667.525 492.457 667.786 491.142 668.278C489.642 668.839 488.38 669.67 487.354 670.774C486.353 671.867 485.698 673.161 485.387 674.657C485.077 676.151 485.242 677.754 485.88 679.463Z" fill="#F4F1DE"></path>
<path d="M517.224 669.191L514.284 663.503L534.115 653.252L537.055 658.94L517.224 669.191ZM525.18 645.78L531.503 642.512L545.042 668.705L538.718 671.973L525.18 645.78ZM507.594 654.871L513.917 651.602L527.456 677.794L521.132 681.062L507.594 654.871Z" fill="#F4F1DE"></path>
<path d="M595.863 632.736L592.022 628.317L603.243 618.563L607.084 622.982L595.863 632.736ZM580.361 614.903L576.52 610.484L587.741 600.73L591.582 605.149L580.361 614.903ZM587.573 623.2L583.815 618.876L594.4 609.675L598.159 613.999L587.573 623.2ZM572.96 613.579L578.109 609.103L597.453 631.354L592.302 635.832L572.96 613.579Z" fill="#F4F1DE"></path>
<path d="M610.913 576.492L615.522 571.403L638.468 592.186L611.39 595.166L623.69 606.307L619.109 611.364L596.163 590.582L623.213 587.632L610.913 576.492Z" fill="#F4F1DE"></path>
<path d="M645.031 563.158L640.564 559.992L649.187 547.827C651.192 549.077 652.852 550.547 654.167 552.237C655.482 553.925 656.407 555.752 656.943 557.716C657.479 559.678 657.553 561.71 657.166 563.81C656.755 565.894 655.828 567.956 654.382 569.994C653.019 571.919 651.471 573.471 649.737 574.653C647.982 575.819 646.13 576.587 644.179 576.96C642.205 577.315 640.204 577.274 638.175 576.834C636.14 576.355 634.171 575.441 632.27 574.093C630.369 572.746 628.886 571.195 627.822 569.443C626.736 567.675 626.073 565.793 625.834 563.8C625.595 561.806 625.755 559.786 626.311 557.736C626.869 555.688 627.822 553.713 629.17 551.811C630.372 550.116 631.692 548.763 633.131 547.753C634.57 546.742 636.091 546.03 637.692 545.616C639.287 545.164 640.913 544.956 642.572 544.996L641.597 552.051C640.246 551.918 638.927 552.102 637.643 552.604C636.352 553.066 635.211 553.994 634.221 555.393C633.279 556.72 632.708 558.157 632.508 559.702C632.324 561.223 632.558 562.715 633.209 564.175C633.854 565.596 634.978 566.875 636.583 568.011C638.162 569.132 639.756 569.797 641.363 570.007C642.964 570.177 644.465 569.952 645.87 569.33C647.268 568.669 648.471 567.627 649.478 566.207C650.094 565.338 650.552 564.474 650.849 563.617C651.124 562.744 651.244 561.918 651.212 561.139C651.157 560.342 650.988 559.586 650.704 558.868C650.415 558.112 650.034 557.411 649.562 556.767L645.031 563.158Z" fill="#F4F1DE"></path>
<path d="M644.877 528.51L648.274 522.254L668.818 533.408L674.466 523.006L679.833 525.92L670.789 542.578L644.877 528.51Z" fill="#F4F1DE"></path>
<path d="M662.865 491.489L665.54 484.756L692.94 495.642L690.265 502.374L662.865 491.489Z" fill="#F4F1DE"></path>
<path d="M692.376 464.626C693.558 464.329 694.623 463.928 695.569 463.424C696.524 462.892 697.316 462.259 697.946 461.526C698.583 460.765 699.027 459.91 699.279 458.96C699.545 457.956 699.52 457.063 699.204 456.282C698.861 455.494 698.254 454.985 697.386 454.755C696.653 454.56 696.02 454.596 695.485 454.861C694.922 455.119 694.326 455.615 693.697 456.349C693.067 457.082 692.31 458.073 691.428 459.321C691.004 459.935 690.456 460.632 689.785 461.412C689.121 462.166 688.344 462.846 687.458 463.454C686.543 464.054 685.53 464.482 684.415 464.74C683.274 464.99 681.999 464.928 680.587 464.554C678.904 464.108 677.566 463.289 676.575 462.097C675.591 460.877 674.985 459.44 674.756 457.78C674.506 456.088 674.626 454.319 675.115 452.473C675.618 450.573 676.365 449.014 677.356 447.794C678.354 446.548 679.451 445.589 680.645 444.919C681.84 444.247 682.99 443.797 684.097 443.566L685.637 449.596C684.852 449.823 684.142 450.143 683.51 450.556C682.857 450.936 682.308 451.415 681.865 451.995C681.401 452.54 681.071 453.179 680.878 453.912C680.619 454.889 680.639 455.694 680.936 456.324C681.207 456.947 681.655 457.341 682.279 457.508C682.93 457.681 683.565 457.587 684.183 457.228C684.808 456.841 685.447 456.24 686.098 455.425C686.756 454.583 687.493 453.557 688.307 452.35C688.953 451.447 689.649 450.629 690.395 449.896C691.112 449.157 691.912 448.556 692.79 448.091C693.675 447.599 694.629 447.285 695.654 447.15C696.677 447.014 697.786 447.105 698.98 447.421C700.419 447.802 701.629 448.442 702.61 449.341C703.572 450.206 704.3 451.241 704.795 452.447C705.296 453.625 705.568 454.903 705.61 456.278C705.687 457.636 705.549 458.979 705.196 460.309C704.707 462.154 703.925 463.792 702.85 465.221C701.755 466.616 700.482 467.746 699.032 468.611C697.583 469.477 696.094 470.055 694.564 470.347L692.376 464.626Z" fill="#F4F1DE"></path>
<path d="M698.199 430.815L691.859 429.925L694.965 407.818L701.305 408.709L698.199 430.815ZM683.703 410.787L684.693 403.737L713.891 407.841L712.899 414.889L683.703 410.787ZM680.947 430.39L681.939 423.342L711.135 427.444L710.145 434.494L680.947 430.39Z" fill="#F4F1DE"></path>
<path d="M62.2258 303.362L63.9465 296.194L79.083 290.341L77.1363 298.451L62.2258 303.362ZM44.8188 306.763L46.4806 299.841L75.1499 306.724L73.4883 313.646L44.8188 306.763ZM51.7179 303.827L45.8611 302.422L47.3262 296.319C47.9162 293.862 48.8038 291.909 49.9889 290.46C51.174 289.012 52.5781 288.035 54.2011 287.53C55.7969 287.018 57.523 286.985 59.3797 287.43C61.209 287.87 62.7321 288.683 63.9487 289.871C65.138 291.051 65.9318 292.556 66.3304 294.384C66.7289 296.212 66.6332 298.355 66.0433 300.812L64.5781 306.914L59.2129 305.627L60.5599 300.015C60.7828 299.088 60.8364 298.263 60.7207 297.542C60.5842 296.788 60.2855 296.167 59.8247 295.681C59.3366 295.189 58.6966 294.847 57.9047 294.656C57.1128 294.467 56.4013 294.484 55.77 294.708C55.1114 294.925 54.55 295.338 54.0857 295.95C53.6281 296.532 53.2878 297.288 53.065 298.217L51.7179 303.827Z" fill="#F4F1DE"></path>
<path d="M78.4404 274.325L73.5137 271.979L78.549 258.257L83.8095 259.694L78.4404 274.325ZM68.9172 262.62L76.4314 269.774L78.0105 269.994L83.8656 276.047L81.094 283.599L57.0151 258.252L91.7886 254.457L89.0025 262.049L80.9429 262.86L79.3296 261.999L68.9172 262.62Z" fill="#F4F1DE"></path>
<path d="M83.5473 237.645C85.2515 238.506 86.9075 238.903 88.5152 238.834C90.1356 238.74 91.6005 238.269 92.9101 237.42C94.2073 236.535 95.2294 235.351 95.9765 233.873C96.7362 232.37 97.0878 230.896 97.031 229.451C96.9742 228.006 96.5277 226.679 95.6913 225.47C94.8427 224.224 93.6539 223.214 92.125 222.442C90.546 221.644 88.9403 221.242 87.3078 221.235C85.688 221.203 84.1856 221.593 82.801 222.403C81.4038 223.175 80.2811 224.402 79.4327 226.081C78.6729 227.585 78.3464 229.072 78.4533 230.541C78.5602 232.011 79.0506 233.375 79.9243 234.635C80.7857 235.857 81.9934 236.86 83.5473 237.645ZM80.1474 244.374C78.1173 243.349 76.4462 242.048 75.1342 240.474C73.8222 238.898 72.8814 237.149 72.3118 235.225C71.7421 233.301 71.5684 231.31 71.7905 229.251C71.9875 227.18 72.5924 225.142 73.6055 223.137C74.6312 221.107 75.9129 219.411 77.4506 218.048C78.9633 216.673 80.6503 215.669 82.5115 215.037C84.3853 214.379 86.3329 214.136 88.354 214.308C90.3878 214.455 92.4196 215.041 94.4497 216.067C96.4799 217.091 98.1761 218.373 99.5385 219.911C100.901 221.448 101.892 223.161 102.512 225.047C103.132 226.934 103.356 228.918 103.184 231.002C103 233.049 102.388 235.099 101.35 237.154C100.299 239.234 98.9984 240.969 97.448 242.355C95.8725 243.731 94.129 244.753 92.2174 245.423C90.3184 246.068 88.3395 246.311 86.2807 246.152C84.222 245.992 82.1775 245.4 80.1474 244.374ZM88.1621 233.181L91.486 226.603L109.616 219.86L106.178 226.664L88.1621 233.181Z" fill="#F4F1DE"></path>
<path d="M87.854 198.657L91.7784 192.719L107.873 203.353C109.115 204.173 110.339 204.511 111.545 204.366C112.752 204.222 113.789 203.492 114.655 202.181C115.538 200.846 115.809 199.595 115.47 198.428C115.13 197.261 114.339 196.267 113.098 195.446L97.0032 184.811L100.927 178.873L117.444 189.786C118.99 190.809 120.167 191.956 120.974 193.23C121.797 194.48 122.281 195.811 122.427 197.219C122.565 198.589 122.419 200.008 121.989 201.474C121.575 202.916 120.91 204.328 119.997 205.711C119.084 207.092 118.045 208.258 116.88 209.204C115.716 210.151 114.469 210.842 113.139 211.276C111.801 211.671 110.388 211.746 108.899 211.503C107.426 211.237 105.916 210.592 104.37 209.57L87.854 198.657Z" fill="#F4F1DE"></path>
<path d="M137.474 179.982L132.995 176.211L142.574 164.839L147.052 168.611L137.474 179.982ZM119.401 164.759L114.923 160.988L124.502 149.616L128.979 153.387L119.401 164.759ZM127.809 171.842L123.427 168.151L132.464 157.424L136.846 161.114L127.809 171.842ZM111.884 164.595L116.28 159.377L138.83 178.372L134.434 183.591L111.884 164.595Z" fill="#F4F1DE"></path>
<path d="M139.362 134.226L144.548 129.35L160.562 146.38L169.184 138.272L173.369 142.721L159.56 155.706L139.362 134.226Z" fill="#F4F1DE"></path>
<path d="M201.54 93.338L198.366 87.8264L218.588 76.1821L221.762 81.6937L214.717 85.7503L226.256 105.789L220.088 109.342L208.549 89.3024L201.54 93.338Z" fill="#F4F1DE"></path>
<path d="M250.9 93.4655L248.585 88.0876L262.243 82.2105L264.557 87.5884L250.9 93.4655ZM241.56 71.7603L239.245 66.3824L252.903 60.5054L255.217 65.8834L241.56 71.7603ZM245.905 81.8585L243.641 76.5966L256.524 71.0525L258.789 76.3144L245.905 81.8585ZM234.913 68.2471L241.18 65.55L252.834 92.6331L246.567 95.3301L234.913 68.2471Z" fill="#F4F1DE"></path>
<path d="M280.155 76.1265L279.084 70.7756L293.088 66.5926L295.088 71.6662L280.155 76.1265ZM283.828 61.49L282.597 71.7925L283.366 73.1892L282.024 81.5025L274.316 83.8049L280.2 49.3423L304.061 74.9207L296.311 77.2351L290.836 71.2658L290.559 69.4579L283.828 61.49Z" fill="#F4F1DE"></path>
<path d="M316.16 57.6241C316.472 59.3941 317.142 60.8583 318.173 62.0171C319.199 63.1481 320.421 63.9311 321.837 64.3662C323.281 64.7964 324.791 64.8728 326.368 64.5955C327.751 64.3521 328.936 63.9584 329.923 63.4139C330.911 62.8695 331.768 62.2339 332.496 61.5072C333.224 60.7806 333.847 60.0294 334.366 59.2536L335.694 66.8036C334.694 67.9205 333.547 68.8635 332.258 69.6322C330.967 70.4009 329.257 70.9726 327.128 71.3472C324.805 71.7559 322.598 71.7735 320.508 71.3999C318.419 71.0263 316.549 70.286 314.9 69.1791C313.251 68.0721 311.877 66.6603 310.777 64.9437C309.676 63.2269 308.927 61.2347 308.528 58.9669C308.129 56.6993 308.153 54.5709 308.602 52.5818C309.05 50.5925 309.859 48.7964 311.032 47.1931C312.204 45.5898 313.709 44.2559 315.546 43.1914C317.383 42.127 319.463 41.3904 321.786 40.9816C323.915 40.6071 325.717 40.5608 327.192 40.843C328.668 41.1252 330.067 41.6204 331.388 42.3286L332.717 49.8785C331.964 49.3267 331.122 48.8334 330.189 48.3986C329.253 47.9361 328.23 47.6315 327.12 47.4845C326.006 47.3099 324.758 47.3442 323.376 47.5875C321.799 47.8649 320.406 48.452 319.195 49.3493C318.012 50.2417 317.131 51.3946 316.552 52.8078C315.976 54.2211 315.844 55.8265 316.16 57.6241Z" fill="#F4F1DE"></path>
<path d="M347.791 55.4479L347.419 49.0565L369.705 47.7613L370.077 54.1528L347.791 55.4479ZM364.583 37.3003L371.689 36.8872L373.399 66.3217L366.293 66.7346L364.583 37.3003ZM344.819 38.4488L351.926 38.0359L353.637 67.4702L346.531 67.8831L344.819 38.4488Z" fill="#F4F1DE"></path>
<path d="M391.064 66.9156L391.403 61.0708L406.246 61.9334L405.907 67.7782L391.064 66.9156ZM392.434 43.3261L392.774 37.4813L407.617 38.3439L407.277 44.1887L392.434 43.3261ZM391.797 54.3009L392.129 48.5822L406.131 49.396L405.798 55.1147L391.797 54.3009ZM388.065 37.2075L394.876 37.6035L393.166 67.0378L386.354 66.642L388.065 37.2075Z" fill="#F4F1DE"></path>
<path d="M426.716 60.0727C427.112 61.2257 427.602 62.2527 428.184 63.1535C428.795 64.0592 429.492 64.7949 430.277 65.3606C431.089 65.9312 431.978 66.3015 432.946 66.4718C433.97 66.6518 434.856 66.5514 435.609 66.1703C436.365 65.7617 436.82 65.1149 436.976 64.2299C437.107 63.4832 437.018 62.8546 436.709 62.3439C436.404 61.8057 435.861 61.2537 435.075 60.688C434.291 60.1224 433.241 59.4527 431.922 58.6792C431.274 58.3086 430.534 57.8218 429.698 57.2188C428.891 56.6206 428.148 55.9052 427.467 55.0728C426.792 54.2126 426.279 53.2386 425.928 52.1506C425.583 51.0348 425.537 49.758 425.79 48.3198C426.092 46.6052 426.794 45.2035 427.898 44.1147C429.031 43.0308 430.412 42.3046 432.046 41.9362C433.711 41.545 435.483 41.5146 437.365 41.8456C439.3 42.1861 440.918 42.7985 442.216 43.6827C443.543 44.5718 444.59 45.5831 445.36 46.7164C446.13 47.8498 446.677 48.958 446.999 50.0412L441.122 52.0865C440.829 51.3221 440.449 50.6424 439.984 50.0473C439.551 49.4294 439.027 48.9237 438.413 48.5305C437.829 48.1144 437.165 47.8406 436.418 47.7092C435.423 47.5341 434.624 47.6215 434.02 47.9716C433.421 48.294 433.067 48.7732 432.954 49.4092C432.838 50.0729 432.985 50.6976 433.394 51.2828C433.833 51.8731 434.485 52.4584 435.353 53.0386C436.247 53.6238 437.33 54.2706 438.603 54.9791C439.559 55.5464 440.433 56.1705 441.225 56.8517C442.023 57.5052 442.689 58.2498 443.227 59.0856C443.792 59.9263 444.185 60.8508 444.406 61.8593C444.629 62.8676 444.632 63.9803 444.418 65.1971C444.16 66.6628 443.624 67.923 442.812 68.9774C442.032 70.0091 441.062 70.8221 439.903 71.4164C438.771 72.0156 437.521 72.3944 436.154 72.5529C434.808 72.744 433.458 72.7202 432.102 72.4819C430.222 72.151 428.524 71.5102 427.009 70.5594C425.527 69.5858 424.293 68.4136 423.308 67.0429C422.323 65.6721 421.621 64.2371 421.2 62.7375L426.716 60.0727Z" fill="#F4F1DE"></path>
<path d="M504.665 61.938L511.204 64.7516L501.964 86.2246L512.836 90.9028L510.422 96.5129L493.011 89.021L504.665 61.938Z" fill="#F4F1DE"></path>
<path d="M528.614 99.5903L531.763 95.1338L544.429 102.427L542.119 107.367L528.614 99.5903ZM541.767 92.1944L533.44 98.3838L532.954 99.9024L525.995 104.644L519.023 100.63L548.093 81.2075L545.925 116.12L538.917 112.085L539.486 104.004L540.609 102.561L541.767 92.1944Z" fill="#F4F1DE"></path>
<path d="M585.488 108.524L591 112.617L572.548 137.475L566.948 110.815L557.057 124.14L551.578 120.073L570.03 95.2148L575.595 121.85L585.488 108.524Z" fill="#F4F1DE"></path>
<path d="M597.748 143.963L601.499 139.973L612.361 150.188C610.847 152.002 609.164 153.445 607.309 154.514C605.455 155.585 603.519 156.25 601.501 156.511C599.482 156.772 597.46 156.566 595.432 155.894C593.425 155.2 591.511 153.998 589.69 152.286C587.972 150.669 586.646 148.923 585.715 147.044C584.803 145.145 584.296 143.204 584.195 141.22C584.113 139.217 584.431 137.241 585.144 135.292C585.899 133.341 587.075 131.518 588.671 129.82C590.268 128.122 592.008 126.866 593.889 126.054C595.79 125.221 597.745 124.823 599.752 124.86C601.761 124.898 603.74 125.334 605.693 126.168C607.645 127.002 609.471 128.217 611.168 129.813C612.682 131.237 613.841 132.731 614.644 134.295C615.446 135.86 615.943 137.464 616.132 139.107C616.362 140.748 616.343 142.388 616.074 144.024L609.221 142.09C609.539 140.769 609.537 139.438 609.218 138.098C608.939 136.755 608.175 135.497 606.926 134.324C605.741 133.208 604.396 132.445 602.893 132.034C601.412 131.643 599.902 131.669 598.367 132.114C596.87 132.557 595.449 133.495 594.103 134.927C592.775 136.338 591.898 137.825 591.469 139.388C591.08 140.949 591.097 142.469 591.519 143.945C591.982 145.421 592.847 146.756 594.116 147.948C594.894 148.678 595.686 149.25 596.493 149.662C597.319 150.055 598.121 150.288 598.898 150.363C599.695 150.418 600.467 150.356 601.216 150.173C602.005 149.99 602.751 149.708 603.455 149.33L597.748 143.963Z" fill="#F4F1DE"></path>
<path d="M629.591 149.442L634.177 154.886L619.424 167.314C618.285 168.273 617.615 169.351 617.413 170.55C617.211 171.748 617.616 172.948 618.629 174.151C619.66 175.375 620.783 175.989 621.999 175.994C623.214 175.998 624.391 175.521 625.528 174.563L640.283 162.135L644.869 167.578L629.728 180.332C628.311 181.526 626.877 182.33 625.426 182.744C623.994 183.18 622.582 183.268 621.189 183.009C619.836 182.754 618.517 182.213 617.232 181.385C615.967 180.579 614.799 179.543 613.732 178.275C612.665 177.009 611.841 175.682 611.263 174.298C610.684 172.914 610.374 171.522 610.334 170.124C610.334 168.728 610.662 167.352 611.316 165.993C611.989 164.655 613.034 163.39 614.451 162.195L629.591 149.442Z" fill="#F4F1DE"></path>
<path d="M636.619 196.779L641.432 194.205L649.49 206.399L645.212 209.78L636.619 196.779ZM651.693 196.058L641.475 197.862L640.361 199.003L632.015 200.125L627.58 193.412L662.27 189.068L644.694 219.311L640.236 212.564L644.364 205.596L646.014 204.808L651.693 196.058Z" fill="#F4F1DE"></path>
<path d="M663.886 233.232L668.773 230.763L675.497 244.071C673.455 245.259 671.38 246.041 669.272 246.413C667.163 246.787 665.117 246.751 663.13 246.307C661.145 245.863 659.314 244.979 657.638 243.655C655.986 242.318 654.598 240.535 653.471 238.304C652.407 236.2 651.759 234.104 651.523 232.021C651.315 229.925 651.5 227.928 652.082 226.028C652.69 224.117 653.662 222.368 654.999 220.779C656.374 219.205 658.101 217.891 660.181 216.84C662.263 215.789 664.325 215.203 666.372 215.081C668.443 214.947 670.417 215.24 672.291 215.96C674.165 216.682 675.876 217.767 677.427 219.217C678.979 220.667 680.278 222.432 681.33 224.512C682.266 226.367 682.846 228.167 683.067 229.912C683.287 231.656 683.207 233.333 682.824 234.942C682.479 236.563 681.902 238.098 681.091 239.545L675.31 235.387C676.058 234.254 676.512 233.003 676.67 231.634C676.864 230.277 676.576 228.834 675.804 227.305C675.069 225.852 674.066 224.675 672.793 223.775C671.535 222.902 670.107 222.412 668.512 222.305C666.954 222.212 665.298 222.607 663.543 223.494C661.815 224.368 660.482 225.467 659.545 226.788C658.646 228.124 658.145 229.558 658.037 231.09C657.968 232.634 658.326 234.183 659.112 235.738C659.593 236.691 660.143 237.498 660.761 238.161C661.404 238.812 662.077 239.304 662.782 239.641C663.512 239.964 664.259 240.168 665.027 240.252C665.83 240.35 666.627 240.341 667.418 240.224L663.886 233.232Z" fill="#F4F1DE"></path>
<path d="M666.681 265.985L672.178 263.967L677.3 277.925L671.804 279.943L666.681 265.985ZM688.864 257.843L694.36 255.827L699.482 269.785L693.987 271.801L688.864 257.843ZM678.543 261.631L683.921 259.657L688.753 272.825L683.376 274.799L678.543 261.631ZM692.736 251.398L695.086 257.804L667.407 267.961L665.056 261.556L692.736 251.398Z" fill="#F4F1DE"></path>
<path d="M687.162 295.96C686.261 296.783 685.514 297.64 684.921 298.534C684.333 299.454 683.936 300.388 683.73 301.332C683.53 302.304 683.544 303.267 683.774 304.223C684.016 305.234 684.463 306.008 685.111 306.545C685.787 307.076 686.562 307.236 687.436 307.026C688.174 306.849 688.715 306.517 689.059 306.031C689.431 305.537 689.722 304.818 689.928 303.872C690.134 302.928 690.329 301.696 690.514 300.179C690.595 299.439 690.746 298.565 690.968 297.558C691.194 296.579 691.555 295.612 692.047 294.657C692.567 293.695 693.256 292.836 694.115 292.081C695 291.32 696.153 290.769 697.573 290.429C699.265 290.022 700.831 290.108 702.27 290.687C703.714 291.292 704.931 292.271 705.92 293.622C706.942 294.994 707.676 296.608 708.121 298.465C708.581 300.376 708.664 302.103 708.37 303.647C708.083 305.217 707.573 306.582 706.84 307.74C706.107 308.897 705.308 309.84 704.444 310.567L700.226 305.992C700.81 305.418 701.282 304.8 701.643 304.136C702.037 303.493 702.292 302.809 702.408 302.089C702.558 301.389 702.544 300.67 702.367 299.934C702.131 298.95 701.731 298.251 701.171 297.838C700.636 297.417 700.056 297.283 699.427 297.434C698.773 297.591 698.258 297.974 697.885 298.584C697.518 299.22 697.24 300.053 697.054 301.079C696.874 302.133 696.712 303.384 696.57 304.833C696.429 305.936 696.205 306.986 695.897 307.984C695.614 308.975 695.197 309.885 694.644 310.71C694.098 311.563 693.407 312.293 692.571 312.898C691.734 313.503 690.716 313.949 689.515 314.238C688.066 314.585 686.698 314.597 685.407 314.272C684.149 313.966 683.017 313.4 682.01 312.574C681.01 311.774 680.164 310.779 679.474 309.588C678.764 308.43 678.247 307.182 677.926 305.844C677.48 303.988 677.391 302.175 677.66 300.407C677.963 298.659 678.546 297.06 679.411 295.611C680.276 294.162 681.312 292.946 682.519 291.963L687.162 295.96Z" fill="#F4F1DE"></path>
<path d="M29.2749 370.135C29.2483 369.604 29.0052 368.119 29.0129 367.831C29.0394 364.133 31.3859 351.945 31.7618 348.976L31.7845 348.793C31.9136 347.628 31.963 346.242 32.3921 345.141C32.825 344.032 34.226 343.645 35.2359 343.254C39.4162 341.659 44.1358 340.316 48.5705 341.72C50.3019 342.266 51.8624 343.242 53.1154 344.78C54.3646 343.242 55.929 342.266 57.6565 341.72C62.0912 340.316 66.8108 341.659 70.9912 343.254C72.0011 343.642 73.4097 344.028 73.8388 345.141C74.2679 346.242 74.3172 347.624 74.4463 348.793L74.4691 348.976C74.8449 351.945 77.1877 364.133 77.218 367.831C77.2257 368.123 76.9789 369.604 76.9523 370.135C76.9143 370.903 77.0054 371.673 76.9675 372.437C77.0434 372.703 76.975 372.953 76.8118 373.15C76.7055 373.355 76.5421 373.48 76.3637 373.546C75.9575 373.993 75.2209 373.697 74.7386 373.546C70.4178 372.147 65.6679 372.201 61.2104 372.793C60.4206 372.896 59.6346 373.025 58.8525 373.177C58.04 373.336 57.2693 373.625 56.4908 373.903C55.8491 374.13 55.1772 374.32 54.5013 374.449C54.0153 374.559 53.5407 374.605 53.3243 374.609C53.2483 374.609 53.18 374.601 53.1078 374.597C53.0357 374.597 52.9635 374.609 52.8914 374.609C52.675 374.609 52.2004 374.563 51.7144 374.449C51.0385 374.32 50.3665 374.13 49.7248 373.903C48.9465 373.625 48.1719 373.336 47.3593 373.177C46.5772 373.025 45.7912 372.896 45.0015 372.793C40.5477 372.201 35.794 372.147 31.4732 373.546C30.9948 373.7 30.2582 373.993 29.8519 373.546C29.6696 373.48 29.5103 373.355 29.4039 373.15C29.2406 372.953 29.1723 372.703 29.2483 372.437C29.2216 371.669 29.3127 370.903 29.2749 370.135ZM63.6138 365.173C65.3565 365.117 67.1031 365.204 68.8269 365.447C70.3076 365.655 71.7695 365.985 73.1933 366.43C73.5388 366.537 73.9262 366.624 74.2526 366.787C74.4616 366.894 74.6323 367.015 74.8185 366.784C75.0766 366.471 74.9057 365.906 74.864 365.549C74.7805 364.831 74.6855 364.118 74.5754 363.404C74.097 360.226 73.4553 357.078 73.0187 353.892C72.8288 352.484 72.6731 351.064 72.491 349.655C72.3998 348.93 72.2973 348.205 72.1796 347.483C72.0353 346.599 72.0048 345.976 71.1772 345.44C69.7686 344.529 68.0789 344.126 66.4653 343.736C64.7263 343.314 62.9912 342.957 61.1914 343.026C59.9308 343.075 58.7045 343.41 57.5919 343.999C57.0528 344.283 56.5364 344.616 56.0467 344.985C55.5607 345.346 54.9682 345.733 54.581 346.196C54.2355 346.607 54.1253 346.978 54.0912 347.404C54.3304 352.845 54.2924 366.334 54.2507 367.291C54.2469 367.372 54.2393 367.451 54.2355 367.531C54.2545 367.633 54.3115 367.714 54.4785 367.714C54.6798 367.717 54.8999 367.584 55.0746 367.493C55.4353 367.303 55.7998 367.121 56.1644 366.95C58.5222 365.838 61.0054 365.257 63.6138 365.173ZM31.4201 366.78C31.6099 367.011 31.777 366.89 31.9858 366.784C32.3085 366.62 32.6957 366.533 33.0451 366.427C34.4689 365.981 35.9307 365.655 37.4115 365.443C39.1353 365.2 40.8857 365.117 42.6285 365.169C45.233 365.254 47.7162 365.834 50.0779 366.946C50.4425 367.121 50.8069 367.303 51.1677 367.49C51.3423 367.58 51.5625 367.71 51.7675 367.71C51.9346 367.71 51.9915 367.63 52.0106 367.527C52.0068 367.447 51.9954 367.368 51.9954 367.288C51.9535 366.331 51.9118 352.841 52.1548 347.4C52.1206 346.974 52.0106 346.603 51.6688 346.192C51.274 345.729 50.6854 345.338 50.1994 344.981C49.7096 344.616 49.1971 344.279 48.6541 343.995C47.5378 343.406 46.3152 343.071 45.0546 343.022C43.2549 342.95 41.5197 343.31 39.7808 343.732C38.1672 344.124 36.4775 344.522 35.0651 345.436C34.2374 345.972 34.2069 346.595 34.0626 347.479C33.9449 348.201 33.8425 348.926 33.7513 349.652C33.5729 351.064 33.4173 352.48 33.2236 353.888C32.787 357.07 32.1414 360.222 31.6668 363.4C31.5644 364.114 31.4618 364.827 31.3782 365.545C31.3327 365.902 31.1619 366.468 31.4201 366.78Z" fill="#F4F1DE"></path>
<path d="M57.2692 347.274C60.8648 345.587 65.7097 345.497 69.3281 347.227C70.285 347.687 69.4496 349.073 68.5004 348.644C65.4211 347.239 61.199 347.451 58.2109 348.883C57.1325 349.396 56.1871 347.783 57.2692 347.274ZM57.3831 351.715C61.2104 350.038 66.1312 349.404 69.9925 351.393C70.8317 351.826 70.0951 353.011 69.2636 352.639C65.7211 351.055 61.4762 351.985 58.0324 353.261C57.1401 353.596 56.506 352.099 57.3831 351.715ZM57.5843 356.147C57.9906 355.805 58.5564 355.645 59.0461 355.467C62.6 354.169 67.3195 354.115 70.733 355.863C71.4848 356.245 70.8507 357.339 70.1102 357.126C68.2498 356.598 66.4995 356.306 64.5668 356.287C63.0519 356.272 61.6774 356.432 60.2308 356.864C59.7941 356.993 59.3764 357.043 58.9589 357.24C58.6589 357.381 58.2867 357.559 57.9564 357.601C57.2351 357.688 57.0869 356.629 57.4932 356.226L57.5843 356.147ZM57.9603 360.426C62.0685 358.489 66.6778 358.846 70.8354 360.312C71.6936 360.616 71.2836 361.936 70.4102 361.664C68.4549 361.049 66.826 360.589 64.7491 360.563C62.7519 360.54 60.5839 361.193 58.7538 361.911C57.7704 362.301 56.9617 360.896 57.9603 360.426ZM48.0276 348.879C45.0395 347.448 40.8174 347.239 37.7381 348.64C36.7927 349.073 35.9535 347.683 36.9104 347.224C40.5249 345.493 45.3698 345.584 48.9654 347.27C50.0514 347.783 49.1097 349.396 48.0276 348.879ZM48.2023 353.261C44.7585 351.985 40.5135 351.055 36.9711 352.639C36.1396 353.011 35.403 351.826 36.2421 351.393C40.1072 349.404 45.0281 350.038 48.8515 351.715C49.7286 352.099 49.0983 353.596 48.2023 353.261ZM48.282 357.605C47.9479 357.563 47.5834 357.385 47.2834 357.244C46.862 357.047 46.4443 356.997 46.0077 356.868C44.561 356.439 43.1866 356.28 41.6717 356.291C39.7389 356.306 37.9848 356.598 36.1244 357.13C35.3878 357.343 34.7537 356.245 35.5016 355.866C38.9151 354.119 43.6384 354.173 47.1885 355.471C47.6783 355.649 48.244 355.805 48.6541 356.15L48.7452 356.234C49.1552 356.629 48.9997 357.692 48.282 357.605ZM35.3992 360.312C39.5568 358.846 44.1662 358.489 48.2745 360.426C49.2729 360.896 48.4643 362.301 47.4771 361.911C45.6508 361.193 43.4866 360.54 41.4855 360.563C39.4125 360.589 37.7799 361.049 35.8282 361.664C34.9512 361.94 34.541 360.616 35.3992 360.312Z" fill="#F4F1DE"></path>
<path d="M721.725 370.135C721.752 369.604 721.995 368.119 721.987 367.831C721.96 364.133 719.614 351.945 719.238 348.976L719.215 348.793C719.086 347.628 719.037 346.242 718.607 345.141C718.175 344.032 716.774 343.645 715.764 343.254C711.583 341.659 706.864 340.316 702.428 341.72C700.698 342.266 699.137 343.242 697.885 344.78C696.635 343.242 695.07 342.266 693.343 341.72C688.908 340.316 684.189 341.659 680.008 343.254C678.999 343.642 677.59 344.028 677.16 345.141C676.732 346.242 676.682 347.624 676.553 348.793L676.531 348.976C676.155 351.945 673.811 364.133 673.782 367.831C673.774 368.123 674.021 369.604 674.047 370.135C674.085 370.903 673.994 371.674 674.033 372.437C673.956 372.703 674.025 372.953 674.187 373.15C674.294 373.355 674.457 373.48 674.637 373.546C675.042 373.993 675.779 373.697 676.261 373.546C680.581 372.149 685.331 372.201 689.789 372.793C690.579 372.896 691.365 373.025 692.147 373.177C692.959 373.337 693.731 373.625 694.509 373.903C695.151 374.13 695.822 374.32 696.498 374.449C696.984 374.559 697.459 374.605 697.675 374.609C697.751 374.609 697.819 374.601 697.892 374.597C697.964 374.597 698.035 374.609 698.108 374.609C698.325 374.609 698.799 374.563 699.285 374.449C699.961 374.32 700.634 374.13 701.275 373.903C702.054 373.625 702.828 373.337 703.64 373.177C704.423 373.025 705.208 372.896 705.998 372.793C710.452 372.201 715.206 372.149 719.526 373.546C720.004 373.7 720.741 373.993 721.148 373.546C721.33 373.48 721.49 373.355 721.596 373.15C721.759 372.953 721.827 372.703 721.752 372.437C721.777 371.67 721.687 370.903 721.725 370.135ZM687.386 365.173C685.643 365.117 683.897 365.204 682.173 365.447C680.691 365.655 679.23 365.985 677.806 366.43C677.461 366.537 677.073 366.624 676.747 366.787C676.537 366.894 676.367 367.015 676.181 366.784C675.923 366.471 676.094 365.906 676.136 365.549C676.219 364.831 676.314 364.118 676.424 363.404C676.902 360.226 677.544 357.078 677.98 353.892C678.171 352.484 678.326 351.064 678.509 349.655C678.6 348.93 678.702 348.205 678.82 347.483C678.964 346.599 678.995 345.976 679.823 345.44C681.231 344.529 682.921 344.128 684.534 343.736C686.273 343.314 688.009 342.957 689.809 343.026C691.069 343.075 692.295 343.41 693.407 343.999C693.947 344.283 694.464 344.616 694.952 344.985C695.439 345.346 696.031 345.733 696.419 346.196C696.764 346.607 696.874 346.979 696.908 347.404C696.669 352.845 696.708 366.334 696.749 367.291C696.752 367.372 696.76 367.451 696.764 367.531C696.745 367.634 696.688 367.714 696.521 367.714C696.32 367.717 696.1 367.584 695.925 367.493C695.564 367.303 695.199 367.121 694.835 366.95C692.477 365.838 689.994 365.257 687.386 365.173ZM719.58 366.78C719.39 367.011 719.223 366.89 719.014 366.784C718.691 366.62 718.304 366.533 717.955 366.427C716.531 365.981 715.069 365.655 713.588 365.443C711.864 365.2 710.114 365.117 708.371 365.169C705.766 365.254 703.283 365.834 700.922 366.946C700.557 367.121 700.192 367.303 699.832 367.49C699.658 367.58 699.438 367.71 699.232 367.71C699.065 367.71 699.008 367.63 698.989 367.527C698.992 367.447 699.004 367.368 699.004 367.288C699.046 366.332 699.088 352.841 698.845 347.4C698.878 346.975 698.989 346.603 699.331 346.192C699.725 345.729 700.314 345.338 700.8 344.981C701.29 344.616 701.803 344.279 702.345 343.995C703.462 343.406 704.684 343.071 705.945 343.022C707.745 342.95 709.48 343.31 711.218 343.732C712.833 344.124 714.523 344.522 715.935 345.438C716.763 345.972 716.792 346.595 716.937 347.479C717.054 348.201 717.157 348.926 717.249 349.652C717.427 351.064 717.583 352.48 717.776 353.888C718.212 357.071 718.858 360.222 719.333 363.4C719.435 364.114 719.537 364.827 719.622 365.545C719.667 365.902 719.838 366.468 719.58 366.78Z" fill="#F4F1DE"></path>
<path d="M693.731 347.274C690.135 345.587 685.291 345.497 681.672 347.227C680.715 347.687 681.55 349.073 682.499 348.644C685.578 347.239 689.801 347.451 692.79 348.883C693.868 349.396 694.813 347.783 693.731 347.274ZM693.617 351.716C689.79 350.038 684.868 349.404 681.008 351.393C680.168 351.826 680.905 353.011 681.737 352.639C685.279 351.055 689.524 351.985 692.967 353.262C693.86 353.596 694.494 352.099 693.617 351.716ZM693.415 356.147C693.01 355.805 692.444 355.645 691.954 355.467C688.401 354.169 683.68 354.115 680.267 355.863C679.515 356.245 680.149 357.339 680.89 357.126C682.75 356.598 684.5 356.306 686.433 356.287C687.948 356.272 689.323 356.432 690.77 356.864C691.206 356.993 691.623 357.043 692.041 357.24C692.341 357.381 692.713 357.559 693.043 357.601C693.764 357.688 693.913 356.629 693.507 356.227L693.415 356.147ZM693.04 360.426C688.931 358.489 684.322 358.846 680.165 360.312C679.306 360.616 679.717 361.936 680.589 361.664C682.545 361.049 684.174 360.589 686.251 360.563C688.248 360.54 690.417 361.193 692.246 361.911C693.23 362.301 694.038 360.896 693.04 360.426ZM702.973 348.879C705.961 347.448 710.183 347.239 713.262 348.64C714.207 349.073 715.046 347.684 714.089 347.224C710.475 345.493 705.63 345.584 702.035 347.27C700.949 347.783 701.89 349.396 702.973 348.879ZM702.797 353.262C706.241 351.985 710.487 351.055 714.029 352.639C714.861 353.011 715.598 351.826 714.758 351.393C710.893 349.404 705.972 350.038 702.149 351.716C701.271 352.099 701.902 353.596 702.797 353.262ZM702.718 357.605C703.052 357.563 703.417 357.385 703.717 357.244C704.138 357.047 704.556 356.997 704.993 356.868C706.439 356.439 707.813 356.28 709.328 356.291C711.261 356.306 713.015 356.598 714.876 357.13C715.612 357.343 716.246 356.245 715.498 355.866C712.085 354.119 707.362 354.173 703.812 355.471C703.322 355.649 702.756 355.805 702.346 356.15L702.255 356.234C701.844 356.629 702 357.692 702.718 357.605ZM715.6 360.312C711.444 358.846 706.833 358.489 702.726 360.426C701.727 360.896 702.536 362.301 703.523 361.911C705.349 361.193 707.514 360.54 709.515 360.563C711.587 360.589 713.221 361.049 715.172 361.664C716.049 361.94 716.459 360.616 715.6 360.312Z" fill="#F4F1DE"></path>
<path d="M301.79 697.317C304.921 697.317 307.46 694.778 307.46 691.647C307.46 688.515 304.921 685.977 301.79 685.977C298.658 685.977 296.12 688.515 296.12 691.647C296.12 694.778 298.658 697.317 301.79 697.317Z" fill="#F4F1DE"></path>
<path d="M564.23 650.337C567.362 650.337 569.9 647.799 569.9 644.667C569.9 641.536 567.362 638.997 564.23 638.997C561.099 638.997 558.56 641.536 558.56 644.667C558.56 647.799 561.099 650.337 564.23 650.337Z" fill="#F4F1DE"></path>
</g>
<defs>
<clipPath id="clip0_31_565">
<rect width="750" height="750" fill="white"></rect>
</clipPath>
<clipPath id="SvgjsClipPath1127"><rect width="1000" height="1000" x="0" y="0" rx="500" ry="500"></rect></clipPath></defs>
</svg></svg></g></g></svg></g><g id="dark-icon"><svg xmlns="http://www.w3.org/2000/svg" version="1.1" xmlns:xlink="http://www.w3.org/1999/xlink" width="1000" height="1000"><g><g transform="matrix(1.3333333333333333,0,0,1.3333333333333333,0,0)"><svg xmlns="http://www.w3.org/2000/svg" version="1.1" xmlns:xlink="http://www.w3.org/1999/xlink" width="750" height="750"><svg width="750" height="750" viewBox="0 0 750 750" fill="none" xmlns="http://www.w3.org/2000/svg">
<g clip-path="url(#clip0_31_565)">
<path d="M205.676 239.517H257.342C284.588 239.517 305.665 245.3 320.573 256.867C335.739 268.177 343.321 284.113 343.321 304.676C343.321 320.613 338.566 333.851 329.056 344.389C319.803 354.928 306.308 361.996 288.573 365.594V367.909C305.537 371.25 319.417 379.219 330.213 391.813C341.008 404.409 349.105 419.959 354.503 438.466C359.386 455.431 364.143 468.669 368.768 478.179C373.653 487.433 378.922 494.116 384.576 498.227C390.489 502.34 397.429 505.296 405.398 507.096V509.409H389.59C378.28 509.409 368.898 507.352 361.443 503.241C354.246 499.128 348.078 492.188 342.936 482.419C337.795 472.652 332.912 459.157 328.285 441.936C320.831 415.461 310.934 396.697 298.597 385.644C286.258 374.592 271.222 369.065 253.486 369.065H251.173V362.125H253.486C294.869 362.125 315.561 343.104 315.561 305.062C315.561 267.534 296.155 248.771 257.342 248.771H231.895V509.409H205.676V239.517ZM458.867 509.409V247.228C455.011 247.228 447.043 247.999 434.961 249.541L359.391 259.18V239.517H584.56V259.18L508.99 249.541C496.908 247.999 488.94 247.228 485.084 247.228V509.409H458.867Z" fill="#F4F1DE"></path>
<path d="M70.2554 408.778L71.2462 415.828L42.049 419.931L41.0583 412.882L70.2554 408.778ZM65.0791 414.014L70.8768 413.201L71.6798 418.914C72.0277 421.389 71.9295 423.515 71.3855 425.294C70.873 427.095 69.9683 428.526 68.6714 429.588C67.3743 430.65 65.7249 431.32 63.7227 431.602C61.7763 431.875 60.0195 431.684 58.4524 431.025C56.913 430.362 55.6349 429.236 54.6179 427.65C53.6327 426.087 52.9661 424.068 52.6183 421.594L51.8153 415.88L57.6129 415.065L58.416 420.779C58.6154 422.196 59.0915 423.263 59.8443 423.981C60.5972 424.697 61.5715 424.971 62.7672 424.804C63.9907 424.631 64.8656 424.097 65.3917 423.201C65.918 422.304 66.0815 421.148 65.8822 419.729L65.0791 414.014Z" fill="#F4F1DE"></path>
<path d="M62.6409 450.448C60.9579 450.893 59.5512 451.615 58.4209 452.612C57.3248 453.627 56.5685 454.83 56.1518 456.219C55.7425 457.634 55.7535 459.156 56.1847 460.785C56.6089 462.386 57.3455 463.687 58.3948 464.688C59.4512 465.715 60.7035 466.385 62.1518 466.699C63.6345 467.033 65.2172 466.976 66.9002 466.531C68.5831 466.085 69.9762 465.368 71.0794 464.378C72.2099 463.382 72.9834 462.189 73.3999 460.801C73.8165 459.412 73.8055 457.891 73.367 456.234C72.9358 454.606 72.1919 453.278 71.1355 452.251C70.0863 451.25 68.8204 450.584 67.3377 450.25C65.8895 449.937 64.3238 450.002 62.6409 450.448ZM60.7107 443.16C62.9094 442.577 65.0187 442.426 67.0386 442.704C69.0657 443.009 70.9277 443.678 72.6244 444.711C74.3211 445.743 75.7704 447.102 76.9721 448.788C78.201 450.466 79.103 452.391 79.6781 454.564C80.2605 456.761 80.4296 458.881 80.1855 460.922C79.9757 462.981 79.3891 464.88 78.4257 466.616C77.4622 468.353 76.1718 469.842 74.5544 471.083C72.9371 472.325 71.029 473.237 68.8304 473.819C66.6317 474.401 64.5087 474.557 62.4617 474.286C60.4218 474.042 58.54 473.407 56.816 472.383C55.0994 471.385 53.613 470.05 52.357 468.378C51.128 466.699 50.2189 464.747 49.6294 462.521C49.0327 460.268 48.8529 458.109 49.0898 456.041C49.3537 453.968 49.981 452.058 50.9716 450.314C51.9694 448.597 53.2905 447.114 54.9351 445.866C56.5868 444.644 58.5119 443.742 60.7107 443.16Z" fill="#F4F1DE"></path>
<path d="M74.4787 492.653L77.2002 499.503L68.1972 513.005L65.1181 505.255L74.4787 492.653ZM86.7496 479.847L89.3777 486.462L61.9768 497.348L59.3486 490.732L86.7496 479.847ZM82.8004 486.22L88.398 483.997L90.715 489.829C91.6481 492.178 92.0473 494.284 91.9126 496.151C91.7779 498.017 91.1926 499.625 90.157 500.972C89.1474 502.311 87.7555 503.331 85.9809 504.036C84.2325 504.731 82.5191 504.943 80.8407 504.673C79.1884 504.393 77.6728 503.621 76.294 502.355C74.9152 501.091 73.7593 499.284 72.8262 496.935L70.5091 491.103L75.637 489.065L77.7675 494.428C78.1199 495.316 78.551 496.02 79.0608 496.544C79.6071 497.082 80.2086 497.416 80.8652 497.549C81.5481 497.671 82.2678 497.581 83.0246 497.281C83.7814 496.98 84.3534 496.555 84.7405 496.009C85.1538 495.452 85.3744 494.791 85.4023 494.023C85.4405 493.284 85.2833 492.469 84.9308 491.583L82.8004 486.22Z" fill="#F4F1DE"></path>
<path d="M95.1717 515.703L100.761 512.667L111.895 533.174L106.306 536.21L102.427 529.065L82.1053 540.099L78.7087 533.843L99.0305 522.809L95.1717 515.703Z" fill="#F4F1DE"></path>
<path d="M118.982 544.388L123.099 550.196L107.361 561.353C106.147 562.213 105.39 563.232 105.088 564.41C104.787 565.587 105.091 566.816 106.001 568.099C106.926 569.405 107.995 570.112 109.205 570.217C110.416 570.321 111.628 569.944 112.842 569.084L128.58 557.927L132.697 563.735L116.547 575.183C115.035 576.255 113.539 576.937 112.059 577.228C110.596 577.543 109.181 577.513 107.814 577.14C106.487 576.773 105.218 576.124 104.007 575.193C102.812 574.283 101.736 573.154 100.778 571.803C99.8195 570.451 99.1096 569.061 98.6479 567.632C98.1863 566.205 97.9939 564.792 98.0706 563.395C98.1865 562.005 98.6271 560.66 99.3924 559.361C100.174 558.084 101.32 556.91 102.832 555.838L118.982 544.388Z" fill="#F4F1DE"></path>
<path d="M135.375 595.757L139.433 592.082L149.442 603.134C147.787 604.821 145.994 606.123 144.06 607.042C142.125 607.96 140.143 608.468 138.11 608.567C136.077 608.664 134.078 608.297 132.111 607.464C130.166 606.612 128.353 605.26 126.676 603.409C125.092 601.66 123.911 599.813 123.133 597.866C122.376 595.899 122.026 593.924 122.084 591.939C122.164 589.934 122.638 587.99 123.507 586.105C124.415 584.221 125.733 582.498 127.46 580.933C129.188 579.369 131.021 578.256 132.963 577.597C134.924 576.919 136.905 576.678 138.903 576.877C140.901 577.075 142.839 577.669 144.72 578.656C146.599 579.644 148.321 581.001 149.885 582.728C151.28 584.268 152.315 585.851 152.99 587.474C153.666 589.099 154.032 590.736 154.089 592.389C154.186 594.045 154.035 595.677 153.638 597.287L146.961 594.81C147.383 593.519 147.488 592.192 147.277 590.83C147.107 589.47 146.446 588.155 145.295 586.884C144.203 585.678 142.924 584.81 141.459 584.28C140.013 583.771 138.506 583.676 136.941 583.996C135.413 584.318 133.922 585.14 132.464 586.459C131.029 587.76 130.034 589.172 129.482 590.694C128.969 592.22 128.865 593.735 129.168 595.242C129.511 596.749 130.265 598.148 131.435 599.439C132.151 600.23 132.896 600.863 133.667 601.339C134.459 601.796 135.239 602.092 136.008 602.229C136.797 602.348 137.573 602.347 138.334 602.225C139.136 602.106 139.902 601.886 140.634 601.564L135.375 595.757Z" fill="#F4F1DE"></path>
<path d="M166.327 600.582L171.7 605.251L159.045 619.811C158.067 620.934 157.572 622.103 157.558 623.318C157.543 624.534 158.13 625.657 159.316 626.688C160.523 627.738 161.728 628.172 162.93 627.988C164.131 627.805 165.22 627.151 166.197 626.028L178.853 611.469L184.224 616.139L171.237 631.08C170.021 632.478 168.729 633.494 167.36 634.127C166.013 634.779 164.63 635.084 163.215 635.044C161.838 635.001 160.452 634.671 159.055 634.051C157.68 633.45 156.366 632.607 155.116 631.52C153.865 630.434 152.848 629.25 152.061 627.972C151.276 626.693 150.755 625.367 150.499 623.991C150.283 622.612 150.393 621.201 150.83 619.758C151.287 618.333 152.125 616.921 153.34 615.523L166.327 600.582Z" fill="#F4F1DE"></path>
<path d="M183.911 652.389L187.199 647.544L199.501 655.895L196.212 660.738L183.911 652.389ZM197.181 632.838L200.468 627.993L212.771 636.343L209.483 641.187L197.181 632.838ZM191.007 641.933L194.224 637.194L205.83 645.071L202.612 649.811L191.007 641.933ZM196.565 625.344L202.212 629.176L185.653 653.572L180.008 649.739L196.565 625.344Z" fill="#F4F1DE"></path>
<path d="M221.323 663.308C221.356 664.527 221.518 665.653 221.805 666.686C222.118 667.733 222.564 668.643 223.144 669.417C223.749 670.204 224.487 670.823 225.361 671.274C226.283 671.751 227.16 671.92 227.991 671.78C228.835 671.615 229.463 671.134 229.875 670.336C230.223 669.663 230.327 669.036 230.183 668.457C230.053 667.852 229.699 667.162 229.118 666.389C228.538 665.615 227.735 664.662 226.708 663.53C226.2 662.984 225.638 662.298 225.022 661.473C224.429 660.662 223.933 659.758 223.531 658.76C223.144 657.738 222.944 656.654 222.935 655.512C222.938 654.344 223.274 653.111 223.944 651.813C224.744 650.267 225.833 649.139 227.212 648.429C228.615 647.733 230.151 647.451 231.82 647.587C233.526 647.71 235.228 648.21 236.924 649.087C238.67 649.989 240.03 651.056 241.006 652.288C242.006 653.532 242.705 654.81 243.103 656.121C243.499 657.432 243.69 658.654 243.674 659.783L237.456 659.983C237.404 659.165 237.245 658.403 236.978 657.697C236.749 656.978 236.399 656.338 235.93 655.78C235.497 655.209 234.945 654.749 234.271 654.401C233.374 653.937 232.585 653.782 231.904 653.936C231.236 654.065 230.754 654.417 230.458 654.991C230.149 655.59 230.103 656.229 230.319 656.91C230.561 657.605 231.01 658.358 231.663 659.171C232.344 659.996 233.186 660.936 234.189 661.993C234.931 662.819 235.578 663.675 236.132 664.561C236.697 665.424 237.113 666.333 237.377 667.291C237.665 668.262 237.764 669.261 237.675 670.29C237.586 671.318 237.258 672.381 236.691 673.479C236.007 674.802 235.12 675.844 234.03 676.608C232.977 677.36 231.809 677.848 230.525 678.069C229.266 678.303 227.96 678.292 226.608 678.035C225.266 677.816 223.985 677.391 222.762 676.759C221.066 675.882 219.637 674.763 218.474 673.405C217.35 672.034 216.522 670.547 215.991 668.944C215.46 667.342 215.217 665.763 215.263 664.206L221.323 663.308Z" fill="#F4F1DE"></path>
<path d="M254.936 690.184L256.986 684.699L270.912 689.906L268.862 695.39L254.936 690.184ZM263.211 668.051L265.261 662.567L279.188 667.774L277.137 673.258L263.211 668.051ZM259.361 678.348L261.367 672.983L274.505 677.894L272.499 683.26L259.361 678.348ZM260.842 660.914L267.233 663.304L256.908 690.921L250.517 688.531L260.842 660.914Z" fill="#F4F1DE"></path>
<path d="M336.702 687.041L337.429 680.976L350.518 682.545L349.792 688.61L336.702 687.041ZM335.328 698.5L336.01 692.812L348.682 694.331L348.001 700.018L335.328 698.5ZM332.744 680.416L339.519 681.227L336.011 710.502L329.236 709.689L332.744 680.416Z" fill="#F4F1DE"></path>
<path d="M374.782 699.658H382.153L391.378 713.009H383.037L374.782 699.658ZM367.411 683.525H374.529V713.009H367.411V683.525ZM371.876 689.549V683.525H378.152C380.68 683.525 382.785 683.933 384.47 684.747C386.155 685.561 387.433 686.699 388.303 688.158C389.173 689.591 389.609 691.262 389.609 693.171C389.609 695.052 389.173 696.723 388.303 698.183C387.433 699.615 386.155 700.739 384.47 701.552C382.785 702.367 380.68 702.774 378.152 702.774H371.876V697.257H377.647C378.601 697.257 379.416 697.116 380.09 696.836C380.791 696.526 381.324 696.091 381.69 695.529C382.055 694.94 382.238 694.237 382.238 693.424C382.238 692.609 382.055 691.921 381.69 691.359C381.324 690.769 380.791 690.32 380.09 690.012C379.416 689.702 378.601 689.549 377.647 689.549H371.876Z" fill="#F4F1DE"></path>
<path d="M413.328 711.088L412.632 705.275L427.394 703.506L428.09 709.319L413.328 711.088ZM410.516 687.627L409.82 681.814L424.583 680.044L425.279 685.857L410.516 687.627ZM411.825 698.543L411.143 692.855L425.069 691.186L425.751 696.873L411.825 698.543ZM405.135 682.375L411.91 681.563L415.419 710.838L408.644 711.65L405.135 682.375Z" fill="#F4F1DE"></path>
<path d="M457.368 673.003L464.039 671.381L471.354 701.463L447.276 688.722L451.197 704.847L444.566 706.46L437.251 676.378L461.289 689.129L457.368 673.003Z" fill="#F4F1DE"></path>
<path d="M485.88 679.463C486.509 681.146 487.437 682.464 488.662 683.415C489.878 684.339 491.221 684.887 492.693 685.056C494.191 685.214 495.691 685.014 497.19 684.453C498.505 683.962 499.597 683.358 500.47 682.643C501.341 681.927 502.068 681.145 502.651 680.298C503.233 679.45 503.709 678.598 504.077 677.741L506.763 684.921C505.982 686.202 505.028 687.338 503.9 688.329C502.771 689.321 501.195 690.196 499.17 690.953C496.961 691.778 494.794 692.199 492.672 692.213C490.548 692.227 488.575 691.841 486.751 691.054C484.928 690.266 483.319 689.13 481.923 687.642C480.529 686.156 479.427 684.334 478.621 682.177C477.814 680.021 477.451 677.924 477.528 675.886C477.606 673.848 478.074 671.934 478.934 670.145C479.793 668.354 481.029 666.767 482.641 665.386C484.253 664.003 486.163 662.899 488.372 662.074C490.397 661.317 492.161 660.942 493.663 660.949C495.165 660.958 496.631 661.19 498.06 661.644L500.744 668.824C499.903 668.419 498.985 668.089 497.989 667.831C496.984 667.548 495.922 667.434 494.805 667.493C493.678 667.525 492.457 667.786 491.142 668.278C489.642 668.839 488.38 669.67 487.354 670.774C486.353 671.867 485.698 673.161 485.387 674.657C485.077 676.151 485.242 677.754 485.88 679.463Z" fill="#F4F1DE"></path>
<path d="M517.224 669.191L514.284 663.503L534.115 653.252L537.055 658.94L517.224 669.191ZM525.18 645.78L531.503 642.512L545.042 668.705L538.718 671.973L525.18 645.78ZM507.594 654.871L513.917 651.602L527.456 677.794L521.132 681.062L507.594 654.871Z" fill="#F4F1DE"></path>
<path d="M595.863 632.736L592.022 628.317L603.243 618.563L607.084 622.982L595.863 632.736ZM580.361 614.903L576.52 610.484L587.741 600.73L591.582 605.149L580.361 614.903ZM587.573 623.2L583.815 618.876L594.4 609.675L598.159 613.999L587.573 623.2ZM572.96 613.579L578.109 609.103L597.453 631.354L592.302 635.832L572.96 613.579Z" fill="#F4F1DE"></path>
<path d="M610.913 576.492L615.522 571.403L638.468 592.186L611.39 595.166L623.69 606.307L619.109 611.364L596.163 590.582L623.213 587.632L610.913 576.492Z" fill="#F4F1DE"></path>
<path d="M645.031 563.158L640.564 559.992L649.187 547.827C651.192 549.077 652.852 550.547 654.167 552.237C655.482 553.925 656.407 555.752 656.943 557.716C657.479 559.678 657.553 561.71 657.166 563.81C656.755 565.894 655.828 567.956 654.382 569.994C653.019 571.919 651.471 573.471 649.737 574.653C647.982 575.819 646.13 576.587 644.179 576.96C642.205 577.315 640.204 577.274 638.175 576.834C636.14 576.355 634.171 575.441 632.27 574.093C630.369 572.746 628.886 571.195 627.822 569.443C626.736 567.675 626.073 565.793 625.834 563.8C625.595 561.806 625.755 559.786 626.311 557.736C626.869 555.688 627.822 553.713 629.17 551.811C630.372 550.116 631.692 548.763 633.131 547.753C634.57 546.742 636.091 546.03 637.692 545.616C639.287 545.164 640.913 544.956 642.572 544.996L641.597 552.051C640.246 551.918 638.927 552.102 637.643 552.604C636.352 553.066 635.211 553.994 634.221 555.393C633.279 556.72 632.708 558.157 632.508 559.702C632.324 561.223 632.558 562.715 633.209 564.175C633.854 565.596 634.978 566.875 636.583 568.011C638.162 569.132 639.756 569.797 641.363 570.007C642.964 570.177 644.465 569.952 645.87 569.33C647.268 568.669 648.471 567.627 649.478 566.207C650.094 565.338 650.552 564.474 650.849 563.617C651.124 562.744 651.244 561.918 651.212 561.139C651.157 560.342 650.988 559.586 650.704 558.868C650.415 558.112 650.034 557.411 649.562 556.767L645.031 563.158Z" fill="#F4F1DE"></path>
<path d="M644.877 528.51L648.274 522.254L668.818 533.408L674.466 523.006L679.833 525.92L670.789 542.578L644.877 528.51Z" fill="#F4F1DE"></path>
<path d="M662.865 491.489L665.54 484.756L692.94 495.642L690.265 502.374L662.865 491.489Z" fill="#F4F1DE"></path>
<path d="M692.376 464.626C693.558 464.329 694.623 463.928 695.569 463.424C696.524 462.892 697.316 462.259 697.946 461.526C698.583 460.765 699.027 459.91 699.279 458.96C699.545 457.956 699.52 457.063 699.204 456.282C698.861 455.494 698.254 454.985 697.386 454.755C696.653 454.56 696.02 454.596 695.485 454.861C694.922 455.119 694.326 455.615 693.697 456.349C693.067 457.082 692.31 458.073 691.428 459.321C691.004 459.935 690.456 460.632 689.785 461.412C689.121 462.166 688.344 462.846 687.458 463.454C686.543 464.054 685.53 464.482 684.415 464.74C683.274 464.99 681.999 464.928 680.587 464.554C678.904 464.108 677.566 463.289 676.575 462.097C675.591 460.877 674.985 459.44 674.756 457.78C674.506 456.088 674.626 454.319 675.115 452.473C675.618 450.573 676.365 449.014 677.356 447.794C678.354 446.548 679.451 445.589 680.645 444.919C681.84 444.247 682.99 443.797 684.097 443.566L685.637 449.596C684.852 449.823 684.142 450.143 683.51 450.556C682.857 450.936 682.308 451.415 681.865 451.995C681.401 452.54 681.071 453.179 680.878 453.912C680.619 454.889 680.639 455.694 680.936 456.324C681.207 456.947 681.655 457.341 682.279 457.508C682.93 457.681 683.565 457.587 684.183 457.228C684.808 456.841 685.447 456.24 686.098 455.425C686.756 454.583 687.493 453.557 688.307 452.35C688.953 451.447 689.649 450.629 690.395 449.896C691.112 449.157 691.912 448.556 692.79 448.091C693.675 447.599 694.629 447.285 695.654 447.15C696.677 447.014 697.786 447.105 698.98 447.421C700.419 447.802 701.629 448.442 702.61 449.341C703.572 450.206 704.3 451.241 704.795 452.447C705.296 453.625 705.568 454.903 705.61 456.278C705.687 457.636 705.549 458.979 705.196 460.309C704.707 462.154 703.925 463.792 702.85 465.221C701.755 466.616 700.482 467.746 699.032 468.611C697.583 469.477 696.094 470.055 694.564 470.347L692.376 464.626Z" fill="#F4F1DE"></path>
<path d="M698.199 430.815L691.859 429.925L694.965 407.818L701.305 408.709L698.199 430.815ZM683.703 410.787L684.693 403.737L713.891 407.841L712.899 414.889L683.703 410.787ZM680.947 430.39L681.939 423.342L711.135 427.444L710.145 434.494L680.947 430.39Z" fill="#F4F1DE"></path>
<path d="M62.2258 303.362L63.9465 296.194L79.083 290.341L77.1363 298.451L62.2258 303.362ZM44.8188 306.763L46.4806 299.841L75.1499 306.724L73.4883 313.646L44.8188 306.763ZM51.7179 303.827L45.8611 302.422L47.3262 296.319C47.9162 293.862 48.8038 291.909 49.9889 290.46C51.174 289.012 52.5781 288.035 54.2011 287.53C55.7969 287.018 57.523 286.985 59.3797 287.43C61.209 287.87 62.7321 288.683 63.9487 289.871C65.138 291.051 65.9318 292.556 66.3304 294.384C66.7289 296.212 66.6332 298.355 66.0433 300.812L64.5781 306.914L59.2129 305.627L60.5599 300.015C60.7828 299.088 60.8364 298.263 60.7207 297.542C60.5842 296.788 60.2855 296.167 59.8247 295.681C59.3366 295.189 58.6966 294.847 57.9047 294.656C57.1128 294.467 56.4013 294.484 55.77 294.708C55.1114 294.925 54.55 295.338 54.0857 295.95C53.6281 296.532 53.2878 297.288 53.065 298.217L51.7179 303.827Z" fill="#F4F1DE"></path>
<path d="M78.4404 274.325L73.5137 271.979L78.549 258.257L83.8095 259.694L78.4404 274.325ZM68.9172 262.62L76.4314 269.774L78.0105 269.994L83.8656 276.047L81.094 283.599L57.0151 258.252L91.7886 254.457L89.0025 262.049L80.9429 262.86L79.3296 261.999L68.9172 262.62Z" fill="#F4F1DE"></path>
<path d="M83.5473 237.645C85.2515 238.506 86.9075 238.903 88.5152 238.834C90.1356 238.74 91.6005 238.269 92.9101 237.42C94.2073 236.535 95.2294 235.351 95.9765 233.873C96.7362 232.37 97.0878 230.896 97.031 229.451C96.9742 228.006 96.5277 226.679 95.6913 225.47C94.8427 224.224 93.6539 223.214 92.125 222.442C90.546 221.644 88.9403 221.242 87.3078 221.235C85.688 221.203 84.1856 221.593 82.801 222.403C81.4038 223.175 80.2811 224.402 79.4327 226.081C78.6729 227.585 78.3464 229.072 78.4533 230.541C78.5602 232.011 79.0506 233.375 79.9243 234.635C80.7857 235.857 81.9934 236.86 83.5473 237.645ZM80.1474 244.374C78.1173 243.349 76.4462 242.048 75.1342 240.474C73.8222 238.898 72.8814 237.149 72.3118 235.225C71.7421 233.301 71.5684 231.31 71.7905 229.251C71.9875 227.18 72.5924 225.142 73.6055 223.137C74.6312 221.107 75.9129 219.411 77.4506 218.048C78.9633 216.673 80.6503 215.669 82.5115 215.037C84.3853 214.379 86.3329 214.136 88.354 214.308C90.3878 214.455 92.4196 215.041 94.4497 216.067C96.4799 217.091 98.1761 218.373 99.5385 219.911C100.901 221.448 101.892 223.161 102.512 225.047C103.132 226.934 103.356 228.918 103.184 231.002C103 233.049 102.388 235.099 101.35 237.154C100.299 239.234 98.9984 240.969 97.448 242.355C95.8725 243.731 94.129 244.753 92.2174 245.423C90.3184 246.068 88.3395 246.311 86.2807 246.152C84.222 245.992 82.1775 245.4 80.1474 244.374ZM88.1621 233.181L91.486 226.603L109.616 219.86L106.178 226.664L88.1621 233.181Z" fill="#F4F1DE"></path>
<path d="M87.854 198.657L91.7784 192.719L107.873 203.353C109.115 204.173 110.339 204.511 111.545 204.366C112.752 204.222 113.789 203.492 114.655 202.181C115.538 200.846 115.809 199.595 115.47 198.428C115.13 197.261 114.339 196.267 113.098 195.446L97.0032 184.811L100.927 178.873L117.444 189.786C118.99 190.809 120.167 191.956 120.974 193.23C121.797 194.48 122.281 195.811 122.427 197.219C122.565 198.589 122.419 200.008 121.989 201.474C121.575 202.916 120.91 204.328 119.997 205.711C119.084 207.092 118.045 208.258 116.88 209.204C115.716 210.151 114.469 210.842 113.139 211.276C111.801 211.671 110.388 211.746 108.899 211.503C107.426 211.237 105.916 210.592 104.37 209.57L87.854 198.657Z" fill="#F4F1DE"></path>
<path d="M137.474 179.982L132.995 176.211L142.574 164.839L147.052 168.611L137.474 179.982ZM119.401 164.759L114.923 160.988L124.502 149.616L128.979 153.387L119.401 164.759ZM127.809 171.842L123.427 168.151L132.464 157.424L136.846 161.114L127.809 171.842ZM111.884 164.595L116.28 159.377L138.83 178.372L134.434 183.591L111.884 164.595Z" fill="#F4F1DE"></path>
<path d="M139.362 134.226L144.548 129.35L160.562 146.38L169.184 138.272L173.369 142.721L159.56 155.706L139.362 134.226Z" fill="#F4F1DE"></path>
<path d="M201.54 93.338L198.366 87.8264L218.588 76.1821L221.762 81.6937L214.717 85.7503L226.256 105.789L220.088 109.342L208.549 89.3024L201.54 93.338Z" fill="#F4F1DE"></path>
<path d="M250.9 93.4655L248.585 88.0876L262.243 82.2105L264.557 87.5884L250.9 93.4655ZM241.56 71.7603L239.245 66.3824L252.903 60.5054L255.217 65.8834L241.56 71.7603ZM245.905 81.8585L243.641 76.5966L256.524 71.0525L258.789 76.3144L245.905 81.8585ZM234.913 68.2471L241.18 65.55L252.834 92.6331L246.567 95.3301L234.913 68.2471Z" fill="#F4F1DE"></path>
<path d="M280.155 76.1265L279.084 70.7756L293.088 66.5926L295.088 71.6662L280.155 76.1265ZM283.828 61.49L282.597 71.7925L283.366 73.1892L282.024 81.5025L274.316 83.8049L280.2 49.3423L304.061 74.9207L296.311 77.2351L290.836 71.2658L290.559 69.4579L283.828 61.49Z" fill="#F4F1DE"></path>
<path d="M316.16 57.6241C316.472 59.3941 317.142 60.8583 318.173 62.0171C319.199 63.1481 320.421 63.9311 321.837 64.3662C323.281 64.7964 324.791 64.8728 326.368 64.5955C327.751 64.3521 328.936 63.9584 329.923 63.4139C330.911 62.8695 331.768 62.2339 332.496 61.5072C333.224 60.7806 333.847 60.0294 334.366 59.2536L335.694 66.8036C334.694 67.9205 333.547 68.8635 332.258 69.6322C330.967 70.4009 329.257 70.9726 327.128 71.3472C324.805 71.7559 322.598 71.7735 320.508 71.3999C318.419 71.0263 316.549 70.286 314.9 69.1791C313.251 68.0721 311.877 66.6603 310.777 64.9437C309.676 63.2269 308.927 61.2347 308.528 58.9669C308.129 56.6993 308.153 54.5709 308.602 52.5818C309.05 50.5925 309.859 48.7964 311.032 47.1931C312.204 45.5898 313.709 44.2559 315.546 43.1914C317.383 42.127 319.463 41.3904 321.786 40.9816C323.915 40.6071 325.717 40.5608 327.192 40.843C328.668 41.1252 330.067 41.6204 331.388 42.3286L332.717 49.8785C331.964 49.3267 331.122 48.8334 330.189 48.3986C329.253 47.9361 328.23 47.6315 327.12 47.4845C326.006 47.3099 324.758 47.3442 323.376 47.5875C321.799 47.8649 320.406 48.452 319.195 49.3493C318.012 50.2417 317.131 51.3946 316.552 52.8078C315.976 54.2211 315.844 55.8265 316.16 57.6241Z" fill="#F4F1DE"></path>
<path d="M347.791 55.4479L347.419 49.0565L369.705 47.7613L370.077 54.1528L347.791 55.4479ZM364.583 37.3003L371.689 36.8872L373.399 66.3217L366.293 66.7346L364.583 37.3003ZM344.819 38.4488L351.926 38.0359L353.637 67.4702L346.531 67.8831L344.819 38.4488Z" fill="#F4F1DE"></path>
<path d="M391.064 66.9156L391.403 61.0708L406.246 61.9334L405.907 67.7782L391.064 66.9156ZM392.434 43.3261L392.774 37.4813L407.617 38.3439L407.277 44.1887L392.434 43.3261ZM391.797 54.3009L392.129 48.5822L406.131 49.396L405.798 55.1147L391.797 54.3009ZM388.065 37.2075L394.876 37.6035L393.166 67.0378L386.354 66.642L388.065 37.2075Z" fill="#F4F1DE"></path>
<path d="M426.716 60.0727C427.112 61.2257 427.602 62.2527 428.184 63.1535C428.795 64.0592 429.492 64.7949 430.277 65.3606C431.089 65.9312 431.978 66.3015 432.946 66.4718C433.97 66.6518 434.856 66.5514 435.609 66.1703C436.365 65.7617 436.82 65.1149 436.976 64.2299C437.107 63.4832 437.018 62.8546 436.709 62.3439C436.404 61.8057 435.861 61.2537 435.075 60.688C434.291 60.1224 433.241 59.4527 431.922 58.6792C431.274 58.3086 430.534 57.8218 429.698 57.2188C428.891 56.6206 428.148 55.9052 427.467 55.0728C426.792 54.2126 426.279 53.2386 425.928 52.1506C425.583 51.0348 425.537 49.758 425.79 48.3198C426.092 46.6052 426.794 45.2035 427.898 44.1147C429.031 43.0308 430.412 42.3046 432.046 41.9362C433.711 41.545 435.483 41.5146 437.365 41.8456C439.3 42.1861 440.918 42.7985 442.216 43.6827C443.543 44.5718 444.59 45.5831 445.36 46.7164C446.13 47.8498 446.677 48.958 446.999 50.0412L441.122 52.0865C440.829 51.3221 440.449 50.6424 439.984 50.0473C439.551 49.4294 439.027 48.9237 438.413 48.5305C437.829 48.1144 437.165 47.8406 436.418 47.7092C435.423 47.5341 434.624 47.6215 434.02 47.9716C433.421 48.294 433.067 48.7732 432.954 49.4092C432.838 50.0729 432.985 50.6976 433.394 51.2828C433.833 51.8731 434.485 52.4584 435.353 53.0386C436.247 53.6238 437.33 54.2706 438.603 54.9791C439.559 55.5464 440.433 56.1705 441.225 56.8517C442.023 57.5052 442.689 58.2498 443.227 59.0856C443.792 59.9263 444.185 60.8508 444.406 61.8593C444.629 62.8676 444.632 63.9803 444.418 65.1971C444.16 66.6628 443.624 67.923 442.812 68.9774C442.032 70.0091 441.062 70.8221 439.903 71.4164C438.771 72.0156 437.521 72.3944 436.154 72.5529C434.808 72.744 433.458 72.7202 432.102 72.4819C430.222 72.151 428.524 71.5102 427.009 70.5594C425.527 69.5858 424.293 68.4136 423.308 67.0429C422.323 65.6721 421.621 64.2371 421.2 62.7375L426.716 60.0727Z" fill="#F4F1DE"></path>
<path d="M504.665 61.938L511.204 64.7516L501.964 86.2246L512.836 90.9028L510.422 96.5129L493.011 89.021L504.665 61.938Z" fill="#F4F1DE"></path>
<path d="M528.614 99.5903L531.763 95.1338L544.429 102.427L542.119 107.367L528.614 99.5903ZM541.767 92.1944L533.44 98.3838L532.954 99.9024L525.995 104.644L519.023 100.63L548.093 81.2075L545.925 116.12L538.917 112.085L539.486 104.004L540.609 102.561L541.767 92.1944Z" fill="#F4F1DE"></path>
<path d="M585.488 108.524L591 112.617L572.548 137.475L566.948 110.815L557.057 124.14L551.578 120.073L570.03 95.2148L575.595 121.85L585.488 108.524Z" fill="#F4F1DE"></path>
<path d="M597.748 143.963L601.499 139.973L612.361 150.188C610.847 152.002 609.164 153.445 607.309 154.514C605.455 155.585 603.519 156.25 601.501 156.511C599.482 156.772 597.46 156.566 595.432 155.894C593.425 155.2 591.511 153.998 589.69 152.286C587.972 150.669 586.646 148.923 585.715 147.044C584.803 145.145 584.296 143.204 584.195 141.22C584.113 139.217 584.431 137.241 585.144 135.292C585.899 133.341 587.075 131.518 588.671 129.82C590.268 128.122 592.008 126.866 593.889 126.054C595.79 125.221 597.745 124.823 599.752 124.86C601.761 124.898 603.74 125.334 605.693 126.168C607.645 127.002 609.471 128.217 611.168 129.813C612.682 131.237 613.841 132.731 614.644 134.295C615.446 135.86 615.943 137.464 616.132 139.107C616.362 140.748 616.343 142.388 616.074 144.024L609.221 142.09C609.539 140.769 609.537 139.438 609.218 138.098C608.939 136.755 608.175 135.497 606.926 134.324C605.741 133.208 604.396 132.445 602.893 132.034C601.412 131.643 599.902 131.669 598.367 132.114C596.87 132.557 595.449 133.495 594.103 134.927C592.775 136.338 591.898 137.825 591.469 139.388C591.08 140.949 591.097 142.469 591.519 143.945C591.982 145.421 592.847 146.756 594.116 147.948C594.894 148.678 595.686 149.25 596.493 149.662C597.319 150.055 598.121 150.288 598.898 150.363C599.695 150.418 600.467 150.356 601.216 150.173C602.005 149.99 602.751 149.708 603.455 149.33L597.748 143.963Z" fill="#F4F1DE"></path>
<path d="M629.591 149.442L634.177 154.886L619.424 167.314C618.285 168.273 617.615 169.351 617.413 170.55C617.211 171.748 617.616 172.948 618.629 174.151C619.66 175.375 620.783 175.989 621.999 175.994C623.214 175.998 624.391 175.521 625.528 174.563L640.283 162.135L644.869 167.578L629.728 180.332C628.311 181.526 626.877 182.33 625.426 182.744C623.994 183.18 622.582 183.268 621.189 183.009C619.836 182.754 618.517 182.213 617.232 181.385C615.967 180.579 614.799 179.543 613.732 178.275C612.665 177.009 611.841 175.682 611.263 174.298C610.684 172.914 610.374 171.522 610.334 170.124C610.334 168.728 610.662 167.352 611.316 165.993C611.989 164.655 613.034 163.39 614.451 162.195L629.591 149.442Z" fill="#F4F1DE"></path>
<path d="M636.619 196.779L641.432 194.205L649.49 206.399L645.212 209.78L636.619 196.779ZM651.693 196.058L641.475 197.862L640.361 199.003L632.015 200.125L627.58 193.412L662.27 189.068L644.694 219.311L640.236 212.564L644.364 205.596L646.014 204.808L651.693 196.058Z" fill="#F4F1DE"></path>
<path d="M663.886 233.232L668.773 230.763L675.497 244.071C673.455 245.259 671.38 246.041 669.272 246.413C667.163 246.787 665.117 246.751 663.13 246.307C661.145 245.863 659.314 244.979 657.638 243.655C655.986 242.318 654.598 240.535 653.471 238.304C652.407 236.2 651.759 234.104 651.523 232.021C651.315 229.925 651.5 227.928 652.082 226.028C652.69 224.117 653.662 222.368 654.999 220.779C656.374 219.205 658.101 217.891 660.181 216.84C662.263 215.789 664.325 215.203 666.372 215.081C668.443 214.947 670.417 215.24 672.291 215.96C674.165 216.682 675.876 217.767 677.427 219.217C678.979 220.667 680.278 222.432 681.33 224.512C682.266 226.367 682.846 228.167 683.067 229.912C683.287 231.656 683.207 233.333 682.824 234.942C682.479 236.563 681.902 238.098 681.091 239.545L675.31 235.387C676.058 234.254 676.512 233.003 676.67 231.634C676.864 230.277 676.576 228.834 675.804 227.305C675.069 225.852 674.066 224.675 672.793 223.775C671.535 222.902 670.107 222.412 668.512 222.305C666.954 222.212 665.298 222.607 663.543 223.494C661.815 224.368 660.482 225.467 659.545 226.788C658.646 228.124 658.145 229.558 658.037 231.09C657.968 232.634 658.326 234.183 659.112 235.738C659.593 236.691 660.143 237.498 660.761 238.161C661.404 238.812 662.077 239.304 662.782 239.641C663.512 239.964 664.259 240.168 665.027 240.252C665.83 240.35 666.627 240.341 667.418 240.224L663.886 233.232Z" fill="#F4F1DE"></path>
<path d="M666.681 265.985L672.178 263.967L677.3 277.925L671.804 279.943L666.681 265.985ZM688.864 257.843L694.36 255.827L699.482 269.785L693.987 271.801L688.864 257.843ZM678.543 261.631L683.921 259.657L688.753 272.825L683.376 274.799L678.543 261.631ZM692.736 251.398L695.086 257.804L667.407 267.961L665.056 261.556L692.736 251.398Z" fill="#F4F1DE"></path>
<path d="M687.162 295.96C686.261 296.783 685.514 297.64 684.921 298.534C684.333 299.454 683.936 300.388 683.73 301.332C683.53 302.304 683.544 303.267 683.774 304.223C684.016 305.234 684.463 306.008 685.111 306.545C685.787 307.076 686.562 307.236 687.436 307.026C688.174 306.849 688.715 306.517 689.059 306.031C689.431 305.537 689.722 304.818 689.928 303.872C690.134 302.928 690.329 301.696 690.514 300.179C690.595 299.439 690.746 298.565 690.968 297.558C691.194 296.579 691.555 295.612 692.047 294.657C692.567 293.695 693.256 292.836 694.115 292.081C695 291.32 696.153 290.769 697.573 290.429C699.265 290.022 700.831 290.108 702.27 290.687C703.714 291.292 704.931 292.271 705.92 293.622C706.942 294.994 707.676 296.608 708.121 298.465C708.581 300.376 708.664 302.103 708.37 303.647C708.083 305.217 707.573 306.582 706.84 307.74C706.107 308.897 705.308 309.84 704.444 310.567L700.226 305.992C700.81 305.418 701.282 304.8 701.643 304.136C702.037 303.493 702.292 302.809 702.408 302.089C702.558 301.389 702.544 300.67 702.367 299.934C702.131 298.95 701.731 298.251 701.171 297.838C700.636 297.417 700.056 297.283 699.427 297.434C698.773 297.591 698.258 297.974 697.885 298.584C697.518 299.22 697.24 300.053 697.054 301.079C696.874 302.133 696.712 303.384 696.57 304.833C696.429 305.936 696.205 306.986 695.897 307.984C695.614 308.975 695.197 309.885 694.644 310.71C694.098 311.563 693.407 312.293 692.571 312.898C691.734 313.503 690.716 313.949 689.515 314.238C688.066 314.585 686.698 314.597 685.407 314.272C684.149 313.966 683.017 313.4 682.01 312.574C681.01 311.774 680.164 310.779 679.474 309.588C678.764 308.43 678.247 307.182 677.926 305.844C677.48 303.988 677.391 302.175 677.66 300.407C677.963 298.659 678.546 297.06 679.411 295.611C680.276 294.162 681.312 292.946 682.519 291.963L687.162 295.96Z" fill="#F4F1DE"></path>
<path d="M29.2749 370.135C29.2483 369.604 29.0052 368.119 29.0129 367.831C29.0394 364.133 31.3859 351.945 31.7618 348.976L31.7845 348.793C31.9136 347.628 31.963 346.242 32.3921 345.141C32.825 344.032 34.226 343.645 35.2359 343.254C39.4162 341.659 44.1358 340.316 48.5705 341.72C50.3019 342.266 51.8624 343.242 53.1154 344.78C54.3646 343.242 55.929 342.266 57.6565 341.72C62.0912 340.316 66.8108 341.659 70.9912 343.254C72.0011 343.642 73.4097 344.028 73.8388 345.141C74.2679 346.242 74.3172 347.624 74.4463 348.793L74.4691 348.976C74.8449 351.945 77.1877 364.133 77.218 367.831C77.2257 368.123 76.9789 369.604 76.9523 370.135C76.9143 370.903 77.0054 371.673 76.9675 372.437C77.0434 372.703 76.975 372.953 76.8118 373.15C76.7055 373.355 76.5421 373.48 76.3637 373.546C75.9575 373.993 75.2209 373.697 74.7386 373.546C70.4178 372.147 65.6679 372.201 61.2104 372.793C60.4206 372.896 59.6346 373.025 58.8525 373.177C58.04 373.336 57.2693 373.625 56.4908 373.903C55.8491 374.13 55.1772 374.32 54.5013 374.449C54.0153 374.559 53.5407 374.605 53.3243 374.609C53.2483 374.609 53.18 374.601 53.1078 374.597C53.0357 374.597 52.9635 374.609 52.8914 374.609C52.675 374.609 52.2004 374.563 51.7144 374.449C51.0385 374.32 50.3665 374.13 49.7248 373.903C48.9465 373.625 48.1719 373.336 47.3593 373.177C46.5772 373.025 45.7912 372.896 45.0015 372.793C40.5477 372.201 35.794 372.147 31.4732 373.546C30.9948 373.7 30.2582 373.993 29.8519 373.546C29.6696 373.48 29.5103 373.355 29.4039 373.15C29.2406 372.953 29.1723 372.703 29.2483 372.437C29.2216 371.669 29.3127 370.903 29.2749 370.135ZM63.6138 365.173C65.3565 365.117 67.1031 365.204 68.8269 365.447C70.3076 365.655 71.7695 365.985 73.1933 366.43C73.5388 366.537 73.9262 366.624 74.2526 366.787C74.4616 366.894 74.6323 367.015 74.8185 366.784C75.0766 366.471 74.9057 365.906 74.864 365.549C74.7805 364.831 74.6855 364.118 74.5754 363.404C74.097 360.226 73.4553 357.078 73.0187 353.892C72.8288 352.484 72.6731 351.064 72.491 349.655C72.3998 348.93 72.2973 348.205 72.1796 347.483C72.0353 346.599 72.0048 345.976 71.1772 345.44C69.7686 344.529 68.0789 344.126 66.4653 343.736C64.7263 343.314 62.9912 342.957 61.1914 343.026C59.9308 343.075 58.7045 343.41 57.5919 343.999C57.0528 344.283 56.5364 344.616 56.0467 344.985C55.5607 345.346 54.9682 345.733 54.581 346.196C54.2355 346.607 54.1253 346.978 54.0912 347.404C54.3304 352.845 54.2924 366.334 54.2507 367.291C54.2469 367.372 54.2393 367.451 54.2355 367.531C54.2545 367.633 54.3115 367.714 54.4785 367.714C54.6798 367.717 54.8999 367.584 55.0746 367.493C55.4353 367.303 55.7998 367.121 56.1644 366.95C58.5222 365.838 61.0054 365.257 63.6138 365.173ZM31.4201 366.78C31.6099 367.011 31.777 366.89 31.9858 366.784C32.3085 366.62 32.6957 366.533 33.0451 366.427C34.4689 365.981 35.9307 365.655 37.4115 365.443C39.1353 365.2 40.8857 365.117 42.6285 365.169C45.233 365.254 47.7162 365.834 50.0779 366.946C50.4425 367.121 50.8069 367.303 51.1677 367.49C51.3423 367.58 51.5625 367.71 51.7675 367.71C51.9346 367.71 51.9915 367.63 52.0106 367.527C52.0068 367.447 51.9954 367.368 51.9954 367.288C51.9535 366.331 51.9118 352.841 52.1548 347.4C52.1206 346.974 52.0106 346.603 51.6688 346.192C51.274 345.729 50.6854 345.338 50.1994 344.981C49.7096 344.616 49.1971 344.279 48.6541 343.995C47.5378 343.406 46.3152 343.071 45.0546 343.022C43.2549 342.95 41.5197 343.31 39.7808 343.732C38.1672 344.124 36.4775 344.522 35.0651 345.436C34.2374 345.972 34.2069 346.595 34.0626 347.479C33.9449 348.201 33.8425 348.926 33.7513 349.652C33.5729 351.064 33.4173 352.48 33.2236 353.888C32.787 357.07 32.1414 360.222 31.6668 363.4C31.5644 364.114 31.4618 364.827 31.3782 365.545C31.3327 365.902 31.1619 366.468 31.4201 366.78Z" fill="#F4F1DE"></path>
<path d="M57.2692 347.274C60.8648 345.587 65.7097 345.497 69.3281 347.227C70.285 347.687 69.4496 349.073 68.5004 348.644C65.4211 347.239 61.199 347.451 58.2109 348.883C57.1325 349.396 56.1871 347.783 57.2692 347.274ZM57.3831 351.715C61.2104 350.038 66.1312 349.404 69.9925 351.393C70.8317 351.826 70.0951 353.011 69.2636 352.639C65.7211 351.055 61.4762 351.985 58.0324 353.261C57.1401 353.596 56.506 352.099 57.3831 351.715ZM57.5843 356.147C57.9906 355.805 58.5564 355.645 59.0461 355.467C62.6 354.169 67.3195 354.115 70.733 355.863C71.4848 356.245 70.8507 357.339 70.1102 357.126C68.2498 356.598 66.4995 356.306 64.5668 356.287C63.0519 356.272 61.6774 356.432 60.2308 356.864C59.7941 356.993 59.3764 357.043 58.9589 357.24C58.6589 357.381 58.2867 357.559 57.9564 357.601C57.2351 357.688 57.0869 356.629 57.4932 356.226L57.5843 356.147ZM57.9603 360.426C62.0685 358.489 66.6778 358.846 70.8354 360.312C71.6936 360.616 71.2836 361.936 70.4102 361.664C68.4549 361.049 66.826 360.589 64.7491 360.563C62.7519 360.54 60.5839 361.193 58.7538 361.911C57.7704 362.301 56.9617 360.896 57.9603 360.426ZM48.0276 348.879C45.0395 347.448 40.8174 347.239 37.7381 348.64C36.7927 349.073 35.9535 347.683 36.9104 347.224C40.5249 345.493 45.3698 345.584 48.9654 347.27C50.0514 347.783 49.1097 349.396 48.0276 348.879ZM48.2023 353.261C44.7585 351.985 40.5135 351.055 36.9711 352.639C36.1396 353.011 35.403 351.826 36.2421 351.393C40.1072 349.404 45.0281 350.038 48.8515 351.715C49.7286 352.099 49.0983 353.596 48.2023 353.261ZM48.282 357.605C47.9479 357.563 47.5834 357.385 47.2834 357.244C46.862 357.047 46.4443 356.997 46.0077 356.868C44.561 356.439 43.1866 356.28 41.6717 356.291C39.7389 356.306 37.9848 356.598 36.1244 357.13C35.3878 357.343 34.7537 356.245 35.5016 355.866C38.9151 354.119 43.6384 354.173 47.1885 355.471C47.6783 355.649 48.244 355.805 48.6541 356.15L48.7452 356.234C49.1552 356.629 48.9997 357.692 48.282 357.605ZM35.3992 360.312C39.5568 358.846 44.1662 358.489 48.2745 360.426C49.2729 360.896 48.4643 362.301 47.4771 361.911C45.6508 361.193 43.4866 360.54 41.4855 360.563C39.4125 360.589 37.7799 361.049 35.8282 361.664C34.9512 361.94 34.541 360.616 35.3992 360.312Z" fill="#F4F1DE"></path>
<path d="M721.725 370.135C721.752 369.604 721.995 368.119 721.987 367.831C721.96 364.133 719.614 351.945 719.238 348.976L719.215 348.793C719.086 347.628 719.037 346.242 718.607 345.141C718.175 344.032 716.774 343.645 715.764 343.254C711.583 341.659 706.864 340.316 702.428 341.72C700.698 342.266 699.137 343.242 697.885 344.78C696.635 343.242 695.07 342.266 693.343 341.72C688.908 340.316 684.189 341.659 680.008 343.254C678.999 343.642 677.59 344.028 677.16 345.141C676.732 346.242 676.682 347.624 676.553 348.793L676.531 348.976C676.155 351.945 673.811 364.133 673.782 367.831C673.774 368.123 674.021 369.604 674.047 370.135C674.085 370.903 673.994 371.674 674.033 372.437C673.956 372.703 674.025 372.953 674.187 373.15C674.294 373.355 674.457 373.48 674.637 373.546C675.042 373.993 675.779 373.697 676.261 373.546C680.581 372.149 685.331 372.201 689.789 372.793C690.579 372.896 691.365 373.025 692.147 373.177C692.959 373.337 693.731 373.625 694.509 373.903C695.151 374.13 695.822 374.32 696.498 374.449C696.984 374.559 697.459 374.605 697.675 374.609C697.751 374.609 697.819 374.601 697.892 374.597C697.964 374.597 698.035 374.609 698.108 374.609C698.325 374.609 698.799 374.563 699.285 374.449C699.961 374.32 700.634 374.13 701.275 373.903C702.054 373.625 702.828 373.337 703.64 373.177C704.423 373.025 705.208 372.896 705.998 372.793C710.452 372.201 715.206 372.149 719.526 373.546C720.004 373.7 720.741 373.993 721.148 373.546C721.33 373.48 721.49 373.355 721.596 373.15C721.759 372.953 721.827 372.703 721.752 372.437C721.777 371.67 721.687 370.903 721.725 370.135ZM687.386 365.173C685.643 365.117 683.897 365.204 682.173 365.447C680.691 365.655 679.23 365.985 677.806 366.43C677.461 366.537 677.073 366.624 676.747 366.787C676.537 366.894 676.367 367.015 676.181 366.784C675.923 366.471 676.094 365.906 676.136 365.549C676.219 364.831 676.314 364.118 676.424 363.404C676.902 360.226 677.544 357.078 677.98 353.892C678.171 352.484 678.326 351.064 678.509 349.655C678.6 348.93 678.702 348.205 678.82 347.483C678.964 346.599 678.995 345.976 679.823 345.44C681.231 344.529 682.921 344.128 684.534 343.736C686.273 343.314 688.009 342.957 689.809 343.026C691.069 343.075 692.295 343.41 693.407 343.999C693.947 344.283 694.464 344.616 694.952 344.985C695.439 345.346 696.031 345.733 696.419 346.196C696.764 346.607 696.874 346.979 696.908 347.404C696.669 352.845 696.708 366.334 696.749 367.291C696.752 367.372 696.76 367.451 696.764 367.531C696.745 367.634 696.688 367.714 696.521 367.714C696.32 367.717 696.1 367.584 695.925 367.493C695.564 367.303 695.199 367.121 694.835 366.95C692.477 365.838 689.994 365.257 687.386 365.173ZM719.58 366.78C719.39 367.011 719.223 366.89 719.014 366.784C718.691 366.62 718.304 366.533 717.955 366.427C716.531 365.981 715.069 365.655 713.588 365.443C711.864 365.2 710.114 365.117 708.371 365.169C705.766 365.254 703.283 365.834 700.922 366.946C700.557 367.121 700.192 367.303 699.832 367.49C699.658 367.58 699.438 367.71 699.232 367.71C699.065 367.71 699.008 367.63 698.989 367.527C698.992 367.447 699.004 367.368 699.004 367.288C699.046 366.332 699.088 352.841 698.845 347.4C698.878 346.975 698.989 346.603 699.331 346.192C699.725 345.729 700.314 345.338 700.8 344.981C701.29 344.616 701.803 344.279 702.345 343.995C703.462 343.406 704.684 343.071 705.945 343.022C707.745 342.95 709.48 343.31 711.218 343.732C712.833 344.124 714.523 344.522 715.935 345.438C716.763 345.972 716.792 346.595 716.937 347.479C717.054 348.201 717.157 348.926 717.249 349.652C717.427 351.064 717.583 352.48 717.776 353.888C718.212 357.071 718.858 360.222 719.333 363.4C719.435 364.114 719.537 364.827 719.622 365.545C719.667 365.902 719.838 366.468 719.58 366.78Z" fill="#F4F1DE"></path>
<path d="M693.731 347.274C690.135 345.587 685.291 345.497 681.672 347.227C680.715 347.687 681.55 349.073 682.499 348.644C685.578 347.239 689.801 347.451 692.79 348.883C693.868 349.396 694.813 347.783 693.731 347.274ZM693.617 351.716C689.79 350.038 684.868 349.404 681.008 351.393C680.168 351.826 680.905 353.011 681.737 352.639C685.279 351.055 689.524 351.985 692.967 353.262C693.86 353.596 694.494 352.099 693.617 351.716ZM693.415 356.147C693.01 355.805 692.444 355.645 691.954 355.467C688.401 354.169 683.68 354.115 680.267 355.863C679.515 356.245 680.149 357.339 680.89 357.126C682.75 356.598 684.5 356.306 686.433 356.287C687.948 356.272 689.323 356.432 690.77 356.864C691.206 356.993 691.623 357.043 692.041 357.24C692.341 357.381 692.713 357.559 693.043 357.601C693.764 357.688 693.913 356.629 693.507 356.227L693.415 356.147ZM693.04 360.426C688.931 358.489 684.322 358.846 680.165 360.312C679.306 360.616 679.717 361.936 680.589 361.664C682.545 361.049 684.174 360.589 686.251 360.563C688.248 360.54 690.417 361.193 692.246 361.911C693.23 362.301 694.038 360.896 693.04 360.426ZM702.973 348.879C705.961 347.448 710.183 347.239 713.262 348.64C714.207 349.073 715.046 347.684 714.089 347.224C710.475 345.493 705.63 345.584 702.035 347.27C700.949 347.783 701.89 349.396 702.973 348.879ZM702.797 353.262C706.241 351.985 710.487 351.055 714.029 352.639C714.861 353.011 715.598 351.826 714.758 351.393C710.893 349.404 705.972 350.038 702.149 351.716C701.271 352.099 701.902 353.596 702.797 353.262ZM702.718 357.605C703.052 357.563 703.417 357.385 703.717 357.244C704.138 357.047 704.556 356.997 704.993 356.868C706.439 356.439 707.813 356.28 709.328 356.291C711.261 356.306 713.015 356.598 714.876 357.13C715.612 357.343 716.246 356.245 715.498 355.866C712.085 354.119 707.362 354.173 703.812 355.471C703.322 355.649 702.756 355.805 702.346 356.15L702.255 356.234C701.844 356.629 702 357.692 702.718 357.605ZM715.6 360.312C711.444 358.846 706.833 358.489 702.726 360.426C701.727 360.896 702.536 362.301 703.523 361.911C705.349 361.193 707.514 360.54 709.515 360.563C711.587 360.589 713.221 361.049 715.172 361.664C716.049 361.94 716.459 360.616 715.6 360.312Z" fill="#F4F1DE"></path>
<path d="M301.79 697.317C304.921 697.317 307.46 694.778 307.46 691.647C307.46 688.515 304.921 685.977 301.79 685.977C298.658 685.977 296.12 688.515 296.12 691.647C296.12 694.778 298.658 697.317 301.79 697.317Z" fill="#F4F1DE"></path>
<path d="M564.23 650.337C567.362 650.337 569.9 647.799 569.9 644.667C569.9 641.536 567.362 638.997 564.23 638.997C561.099 638.997 558.56 641.536 558.56 644.667C558.56 647.799 561.099 650.337 564.23 650.337Z" fill="#F4F1DE"></path>
</g>
<defs>
<clipPath id="clip0_31_565">
<rect width="750" height="750" fill="white"></rect>
</clipPath>
</defs>
</svg></svg></g></g></svg></g></svg>